<svg style="display:block; margin:auto; xmlns="http://www.w3.org/2000/svg" width="120" height="120" viewBox="0 0 64 64" fill="none">
  <g transform="translate(0,0)">
    <!-- Brain outline -->
    <path d="M32 4C24 4 16 10 16 20c0 6-4 12-4 16s4 8 8 8h24c4 0 8-4 8-8s-4-10-4-16c0-10-8-16-16-16z" 
          stroke="#4F46E5" stroke-width="3" fill="#E0E7FF"/>
    
    <!-- Neural connections / spark -->
    <circle cx="24" cy="24" r="2" fill="#FBBF24"/>
    <circle cx="32" cy="16" r="2" fill="#FBBF24"/>
    <circle cx="40" cy="24" r="2" fill="#FBBF24"/>
    <circle cx="32" cy="32" r="2" fill="#FBBF24"/>
    
    <line x1="24" y1="24" x2="32" y2="16" stroke="#FBBF24" stroke-width="1.5"/>
    <line x1="32" y1="16" x2="40" y2="24" stroke="#FBBF24" stroke-width="1.5"/>
    <line x1="40" y1="24" x2="32" y2="32" stroke="#FBBF24" stroke-width="1.5"/>
    <line x1="32" y1="32" x2="24" y2="24" stroke="#FBBF24" stroke-width="1.5"/>
  </g>
</svg>
