<svg xmlns="http://www.w3.org/2000/svg" width="1024" height="1024" viewBox="0 0 1024 1024">
<g>
<path d="M 547.58 517.36 C542.07,523.03 540.13,524.04 537.25,522.72 C536.01,522.16 535.00,521.13 535.00,520.43 C535.00,519.74 534.44,518.93 533.75,518.64 C532.89,518.28 533.13,517.74 534.50,516.92 C539.48,513.94 546.82,505.10 548.87,499.62 C555.31,482.39 546.88,466.78 525.38,456.11 C522.13,454.50 516.01,452.46 511.78,451.59 C502.49,449.67 484.50,449.39 485.61,451.18 C486.01,451.82 486.60,455.09 486.92,458.43 L 487.50 464.50 L 494.23 465.17 C502.42,465.98 505.95,467.05 517.32,472.21 C523.85,475.17 526.89,476.05 529.07,475.60 C530.68,475.27 533.31,474.73 534.91,474.40 C537.22,473.92 538.06,474.24 538.97,475.94 C540.33,478.49 539.51,481.67 537.18,482.86 C536.26,483.33 533.36,484.23 530.75,484.87 C526.05,486.02 525.87,485.97 514.66,480.43 C504.51,475.42 502.48,474.78 495.26,474.28 C488.05,473.79 487.06,473.47 485.91,471.33 C485.20,470.01 484.04,469.15 483.32,469.43 C482.61,469.70 482.09,469.61 482.18,469.21 C482.26,468.82 481.98,467.24 481.55,465.71 C480.99,463.73 481.21,462.42 482.29,461.21 C483.85,459.46 484.33,457.80 484.12,454.83 C484.03,453.56 483.18,453.23 480.53,453.44 C477.40,453.69 476.96,453.40 475.98,450.42 C473.84,443.96 461.93,435.97 452.08,434.40 C448.93,433.89 448.23,433.40 448.52,431.88 C448.72,430.85 448.45,430.00 447.91,430.00 C447.38,430.00 447.04,428.42 447.17,426.50 C447.30,424.58 447.77,423.00 448.20,423.00 C448.64,423.00 449.00,423.42 449.00,423.93 C449.00,424.44 451.39,425.35 454.32,425.96 C461.39,427.43 470.32,431.77 476.72,436.85 C481.24,440.44 482.60,441.00 486.85,441.00 L 491.75 441.00 L 493.95 435.89 C497.32,428.07 498.96,418.57 498.98,406.87 C499.00,398.66 499.34,395.96 500.50,395.00 C501.57,394.11 502.00,394.09 502.00,394.90 C502.00,395.53 503.18,396.58 504.62,397.24 L 507.24 398.43 L 506.78 412.46 C506.40,424.24 505.91,427.68 503.74,433.81 C503.62,434.16 503.50,434.49 503.39,434.80 C502.17,438.23 501.57,439.92 502.16,440.86 C502.79,441.85 504.76,441.99 508.76,442.46 C511.66,442.79 514.68,443.32 515.47,443.63 C516.46,444.01 517.10,443.28 517.50,441.34 C519.04,433.89 520.22,431.08 523.28,427.54 C526.21,424.15 526.84,423.84 528.75,424.86 C531.38,426.27 531.16,429.80 528.09,435.82 C526.94,438.08 526.00,441.48 526.00,443.39 C526.00,446.56 526.46,447.10 531.50,449.83 C534.53,451.47 537.26,452.39 537.57,451.89 C537.88,451.38 539.95,450.04 542.17,448.91 C544.39,447.78 545.94,447.28 545.62,447.81 C545.29,448.34 545.69,449.33 546.51,450.01 C548.75,451.87 548.38,455.74 545.90,456.53 C543.90,457.17 543.98,457.40 547.46,460.96 L 551.13 464.72 L 554.65 462.92 C558.47,460.98 561.45,461.38 560.55,463.72 C560.24,464.53 559.72,466.25 559.40,467.56 C559.07,468.86 557.91,470.21 556.83,470.55 C555.47,470.99 555.07,471.70 555.53,472.84 C555.91,473.75 556.86,476.35 557.66,478.62 C558.76,481.78 559.96,483.13 562.80,484.40 C569.25,487.30 577.27,488.98 584.69,488.99 C591.60,489.00 594.76,490.29 592.02,491.99 C591.14,492.53 591.10,492.94 591.90,493.44 C592.67,493.92 592.54,494.61 591.45,495.69 C589.14,498.01 572.37,497.00 565.21,494.13 C562.31,492.96 559.77,492.00 559.58,492.00 C559.38,492.00 558.93,494.00 558.56,496.45 C557.63,502.67 552.65,512.14 547.58,517.36 ZM 484.17 425.75 C482.89,428.08 480.51,428.61 478.13,427.10 C477.10,426.45 476.87,424.40 477.21,418.87 C478.63,395.94 470.82,373.86 456.02,358.90 C447.22,350.02 439.21,345.65 428.33,343.83 C414.31,341.47 399.70,345.91 388.86,355.84 C384.49,359.83 383.08,360.65 382.62,359.46 C382.07,358.03 382.52,357.70 386.75,356.44 C387.44,356.23 388.00,355.57 388.00,354.97 C388.00,354.37 387.55,354.16 387.00,354.50 C386.45,354.84 386.00,354.58 386.00,353.92 C386.00,353.26 385.21,352.10 384.25,351.35 C382.63,350.08 382.80,349.72 386.44,346.47 C394.05,339.69 406.66,335.03 417.47,335.01 C423.17,335.00 423.63,334.81 427.97,330.56 C433.03,325.60 442.73,320.39 448.66,319.44 C452.19,318.87 452.58,319.03 452.73,321.07 C452.82,322.31 453.48,323.68 454.19,324.12 C456.05,325.27 454.34,326.48 448.73,327.99 C443.12,329.50 434.34,334.79 435.61,335.90 C436.10,336.32 438.75,337.49 441.50,338.50 C460.41,345.41 477.00,366.59 483.18,391.70 C485.70,401.97 486.29,421.93 484.17,425.75 ZM 466.43 415.43 C464.47,417.39 463.99,417.38 461.16,415.40 C459.35,414.13 459.01,413.22 459.52,410.91 C460.79,405.15 455.79,395.50 450.00,392.50 C448.40,391.67 445.47,391.00 443.48,391.00 C438.65,391.00 436.00,389.44 436.00,386.59 C436.00,383.81 437.57,382.32 440.99,381.85 C443.97,381.43 444.48,379.51 443.03,374.12 C440.72,365.53 434.00,360.65 424.50,360.66 C417.29,360.66 410.99,363.52 408.35,367.99 C406.51,371.11 402.62,372.13 401.66,369.75 C401.38,369.06 401.12,369.62 401.06,371.00 C400.99,372.89 400.75,373.15 400.07,372.08 C399.39,371.00 399.06,371.38 398.73,373.58 C398.33,376.30 398.29,376.26 398.17,373.00 C397.90,365.59 403.66,357.90 412.50,353.87 C417.45,351.61 430.50,351.34 435.42,353.40 C440.15,355.38 446.77,361.63 449.22,366.43 C450.46,368.85 451.50,373.25 451.79,377.30 C452.23,383.45 452.53,384.22 454.99,385.49 C458.63,387.38 463.84,393.44 466.11,398.43 C468.46,403.61 468.64,413.22 466.43,415.43 ZM 446.08 420.52 C444.98,420.18 443.15,420.38 442.02,420.99 C440.34,421.89 439.86,421.76 439.39,420.29 C434.47,405.19 422.98,393.02 408.76,387.83 C402.94,385.71 402.93,385.70 404.82,383.60 C407.22,380.92 408.64,378.49 407.32,379.30 C406.78,379.64 406.33,379.30 406.33,378.56 C406.33,376.88 415.99,380.80 423.52,385.53 C433.34,391.70 444.99,407.67 447.43,418.33 C448.00,420.83 447.84,421.09 446.08,420.52 ZM 530.53 508.35 C528.04,509.30 526.55,509.15 525.20,507.80 C523.53,506.13 523.69,504.47 525.97,500.20 C527.05,498.16 528.19,494.81 528.51,492.75 C529.02,489.46 529.43,489.00 531.85,489.00 C535.42,489.00 537.00,490.67 536.99,494.45 C536.98,498.38 532.74,507.50 530.53,508.35 ZM 500.57 387.75 C499.17,392.22 495.63,389.48 494.98,383.43 C494.60,379.96 494.97,378.86 496.25,379.59 C497.25,380.15 497.25,380.02 496.25,378.95 C494.80,377.39 494.55,374.60 495.93,375.46 C496.44,375.77 497.14,375.58 497.49,375.02 C498.41,373.52 499.67,373.78 499.67,375.46 C499.67,376.26 499.32,376.70 498.90,376.44 C498.48,376.18 497.86,376.41 497.53,376.95 C497.19,377.50 498.02,378.22 499.37,378.56 C501.91,379.19 503.95,383.77 502.19,384.91 C501.68,385.23 500.95,386.51 500.57,387.75 ZM 459.45 459.65 C458.11,461.09 456.73,464.34 456.18,467.33 L 455.24 472.50 L 455.12 467.82 C455.02,464.04 454.50,462.75 452.37,461.07 C450.63,459.71 450.25,459.00 451.25,459.00 C452.57,459.00 453.81,456.84 454.41,453.50 C454.67,452.05 457.17,452.84 459.64,455.14 L 461.78 457.14 ZM 526.70 414.34 C525.98,416.22 524.31,416.41 521.75,414.92 C520.43,414.15 520.04,412.74 520.16,409.20 C520.30,405.23 520.39,405.04 520.74,407.93 C520.99,410.03 521.45,410.89 521.91,410.14 C523.07,408.28 527.52,412.19 526.70,414.34 ZM 485.78 472.83 C486.31,474.43 483.50,474.31 482.14,472.67 C481.27,471.62 481.50,471.37 483.21,471.50 C484.41,471.59 485.56,472.18 485.78,472.83 ZM 434.50 426.00 C433.73,427.24 432.92,427.24 431.00,426.00 C429.84,425.25 430.13,425.03 432.31,425.02 C433.93,425.01 434.86,425.42 434.50,426.00 ZM 405.50 382.00 C405.16,382.55 404.68,383.00 404.44,383.00 C404.20,383.00 404.00,382.55 404.00,382.00 C404.00,381.45 404.48,381.00 405.06,381.00 C405.64,381.00 405.84,381.45 405.50,382.00 Z" fill="rgb(46,118,181)"/>
<path d="M 590.78 496.12 C591.06,496.00 591.29,495.85 591.45,495.69 C592.54,494.61 592.67,493.92 591.90,493.44 C591.10,492.94 591.14,492.53 592.02,491.99 C594.76,490.29 591.60,489.00 584.69,488.99 C583.67,488.99 582.64,488.95 581.60,488.89 C587.44,488.68 596.55,486.85 600.92,484.92 L 605.35 482.96 L 601.70 479.62 L 598.05 476.28 L 592.81 477.64 C589.92,478.39 586.18,479.00 584.49,479.00 C579.27,479.00 569.74,476.08 564.58,472.90 C561.74,471.16 559.03,470.30 557.28,470.36 C558.22,469.84 559.11,468.68 559.40,467.56 C559.72,466.25 560.24,464.53 560.55,463.72 C561.29,461.79 559.40,461.18 556.58,462.11 C559.59,460.89 565.74,459.14 571.00,458.04 C581.64,455.81 592.48,451.34 595.60,447.89 C597.21,446.11 597.20,445.78 595.50,442.00 C594.51,439.80 593.54,438.00 593.35,438.00 C593.16,438.00 590.87,439.53 588.25,441.40 C581.81,446.00 577.37,447.73 564.78,450.53 C558.88,451.85 551.77,453.91 548.97,455.11 L 546.81 456.04 C548.43,454.70 548.44,451.61 546.51,450.01 C545.69,449.33 545.29,448.34 545.62,447.81 C545.94,447.28 544.39,447.78 542.17,448.91 C540.54,449.75 538.98,450.69 538.15,451.34 C540.74,448.63 550.35,444.87 559.50,443.00 C572.31,440.39 576.26,439.08 575.65,437.65 C575.38,437.02 573.90,433.58 572.36,430.00 C569.84,424.15 569.56,422.36 569.54,412.00 C569.52,401.40 569.74,400.05 572.33,394.75 C573.88,391.59 575.53,389.00 576.00,389.00 C576.46,389.00 577.38,390.61 578.03,392.58 C578.95,395.37 578.93,397.90 577.94,403.99 C576.48,412.96 577.46,421.38 580.87,429.25 C583.11,434.42 584.27,434.90 587.84,432.15 C590.14,430.39 590.15,430.26 588.68,425.28 C587.85,422.49 586.85,417.69 586.47,414.60 C585.84,409.58 585.96,408.98 587.63,408.85 C587.80,408.83 587.96,408.82 588.11,408.81 C590.64,408.60 591.97,408.49 592.78,409.09 C593.72,409.78 593.95,411.44 594.54,415.01 C596.95,429.38 604.40,444.34 614.28,454.68 C618.01,458.58 618.43,458.77 620.47,457.43 C621.67,456.64 622.91,456.24 623.22,456.55 C623.52,456.86 624.68,455.96 625.78,454.55 C628.09,451.62 632.00,451.09 632.00,453.71 C632.00,454.65 628.77,458.42 624.83,462.09 L 617.66 468.77 L 614.92 467.10 C613.41,466.18 610.02,462.86 607.37,459.72 C604.73,456.57 602.33,454.00 602.03,454.00 C601.74,454.01 600.17,455.08 598.53,456.38 C595.93,458.47 595.70,459.05 596.67,461.17 C598.77,465.79 607.93,474.68 613.80,477.81 C623.46,482.96 631.02,484.22 651.36,484.08 L 669.22 483.95 L 671.61 486.53 C672.93,487.94 674.00,489.48 674.00,489.94 C674.00,492.64 633.86,493.12 624.02,490.53 C620.46,489.59 616.76,488.40 615.79,487.89 C614.49,487.19 613.03,487.61 610.20,489.49 C604.13,493.51 598.78,495.44 590.78,496.12 ZM 500.57 387.75 C500.95,386.51 501.68,385.23 502.19,384.91 C502.77,384.53 502.94,383.78 502.81,382.92 C502.94,383.29 503.07,383.65 503.19,384.00 C505.33,390.14 506.09,392.48 506.35,398.02 L 504.62 397.24 C503.18,396.58 502.00,395.53 502.00,394.90 C502.00,394.09 501.57,394.11 500.50,395.00 C499.34,395.96 499.00,398.66 498.98,406.87 C498.96,418.47 497.34,427.91 494.03,435.70 C499.37,423.14 500.33,404.87 496.44,389.61 C494.31,381.24 486.56,366.69 479.80,358.35 C475.15,352.61 466.14,344.68 459.75,340.67 C456.84,338.86 456.21,336.19 458.20,334.20 C460.07,332.33 463.21,332.78 467.21,335.50 C469.24,336.88 471.26,337.96 471.70,337.92 C472.14,337.87 474.02,336.07 475.87,333.91 L 479.24 330.00 L 475.37 328.35 C469.50,325.86 458.48,325.43 450.90,327.36 C454.75,326.13 455.78,325.10 454.19,324.12 C453.48,323.68 452.82,322.31 452.73,321.07 C452.58,319.03 452.19,318.87 448.66,319.44 C448.64,319.44 448.61,319.45 448.59,319.45 C453.36,318.38 458.55,317.96 464.20,318.18 C472.76,318.52 475.53,319.06 480.57,321.35 L 486.63 324.11 L 494.24 321.55 C501.85,319.00 511.70,318.06 510.50,320.00 C510.16,320.55 510.37,321.00 510.98,321.00 C511.73,321.00 511.76,321.57 511.07,322.87 C510.52,323.90 510.35,325.02 510.70,325.37 C511.05,325.72 510.25,326.01 508.92,326.02 C505.87,326.06 496.65,329.12 491.13,331.93 C486.46,334.32 478.98,341.30 479.03,343.25 C479.04,343.94 480.70,346.27 482.71,348.43 C486.03,352.01 486.46,352.20 487.43,350.58 C492.09,342.76 499.27,338.75 507.81,339.20 C512.88,339.47 513.54,339.75 513.83,341.81 C514.31,345.22 512.26,347.00 507.85,347.00 C501.73,347.00 501.31,352.46 506.97,358.13 C514.80,365.95 526.11,357.23 521.48,346.95 C519.29,342.10 520.04,340.00 523.95,340.00 C527.80,340.00 530.14,343.41 530.77,349.94 C531.38,356.32 529.64,361.23 525.46,364.90 C520.52,369.24 515.00,370.68 509.27,369.15 C501.74,367.13 498.03,363.47 495.49,355.50 C494.93,353.74 494.68,353.91 493.44,356.83 C492.09,360.02 492.19,360.45 495.96,367.33 C496.93,369.10 498.12,371.58 499.30,374.26 C498.86,373.81 498.10,374.03 497.49,375.02 C497.14,375.58 496.44,375.77 495.93,375.46 C494.55,374.60 494.80,377.39 496.25,378.95 C497.25,380.02 497.25,380.15 496.25,379.59 C494.97,378.86 494.60,379.96 494.98,383.43 C495.63,389.48 499.17,392.22 500.57,387.75 ZM 526.70 414.34 C527.52,412.19 523.07,408.28 521.91,410.14 C521.45,410.89 520.99,410.03 520.74,407.93 C520.39,405.04 520.30,405.23 520.16,409.20 C520.12,410.48 520.14,411.48 520.25,412.28 C520.07,411.20 520.00,409.72 520.00,407.63 C520.00,400.67 517.99,392.78 514.85,387.47 C513.18,384.64 513.02,383.68 514.01,382.48 C516.74,379.20 520.64,381.05 524.50,387.44 C525.40,388.93 526.08,388.78 531.29,385.95 C537.79,382.42 546.21,381.14 552.14,382.77 C555.48,383.70 555.87,383.58 556.88,381.37 C558.14,378.60 562.15,376.46 564.44,377.34 C566.50,378.13 566.43,382.46 564.30,386.07 C562.70,388.77 562.70,389.15 564.30,392.51 C566.70,397.54 566.45,399.84 563.36,401.24 C561.01,402.32 560.55,402.19 559.11,400.08 C558.23,398.78 556.08,396.21 554.35,394.36 C551.50,391.32 550.67,391.00 545.56,391.00 C534.48,391.00 528.00,396.71 528.00,406.47 C528.00,409.58 527.53,413.00 526.96,414.07 C526.79,414.39 526.62,414.66 526.43,414.90 C526.53,414.73 526.62,414.55 526.70,414.34 ZM 553.39 437.98 C550.57,442.24 548.14,443.00 545.57,440.43 C543.42,438.28 543.58,437.22 546.67,432.75 C551.82,425.33 550.71,415.24 543.81,406.71 C542.05,404.54 541.79,403.55 542.63,402.21 C546.61,395.86 555.34,404.17 558.07,416.91 C559.39,423.05 557.42,431.89 553.39,437.98 ZM 640.75 472.46 C639.54,473.31 636.81,474.00 634.67,474.00 C630.99,474.00 630.82,473.86 631.43,471.42 C631.79,470.00 633.79,467.06 635.89,464.87 C639.50,461.12 639.86,460.97 642.60,462.16 C644.20,462.84 645.67,463.52 645.88,463.67 C646.74,464.26 642.78,471.04 640.75,472.46 ZM 528.48 435.05 C531.18,429.49 531.26,426.21 528.75,424.86 C527.75,424.33 527.10,424.16 526.29,424.60 C534.06,417.28 541.00,416.27 541.00,422.67 C541.00,424.35 540.05,425.62 537.90,426.80 C533.63,429.14 530.47,431.93 528.48,435.05 ZM 575.00 468.54 C578.89,469.99 590.60,470.46 591.38,469.19 C591.97,468.24 588.40,462.48 587.27,462.55 C586.46,462.59 575.55,465.76 573.00,466.68 C572.00,467.05 572.66,467.66 575.00,468.54 ZM 544.68 370.75 C543.56,372.27 540.36,372.39 539.47,370.96 C539.12,370.38 539.43,369.17 540.16,368.26 C541.12,367.09 541.14,366.83 540.25,367.37 C539.56,367.78 539.01,367.75 539.02,367.31 C539.05,365.57 540.62,364.28 543.31,363.78 C545.94,363.29 546.11,363.45 545.86,366.38 C545.72,368.09 545.19,370.06 544.68,370.75 ZM 499.64 375.02 C500.48,376.96 501.30,378.96 502.03,380.85 C501.39,379.76 500.42,378.82 499.37,378.56 C498.02,378.22 497.19,377.50 497.53,376.95 C497.86,376.41 498.48,376.18 498.90,376.44 C499.32,376.70 499.67,376.26 499.67,375.46 C499.67,375.30 499.66,375.15 499.64,375.02 ZM 485.32 419.57 C485.73,413.20 485.27,403.61 484.08,396.24 C485.54,403.82 486.10,411.38 485.51,417.66 C485.45,418.34 485.39,418.97 485.32,419.57 ZM 476.15 399.16 C477.25,405.55 477.63,412.17 477.21,418.87 C477.15,419.88 477.11,420.77 477.09,421.56 L 477.15 415.73 C477.21,409.53 476.91,404.17 476.15,399.16 ZM 444.32 320.63 C438.71,322.66 431.92,326.68 427.97,330.56 C432.64,325.98 438.07,322.67 444.32,320.63 ZM 565.21 494.21 C562.31,493.00 559.78,492.00 559.58,492.00 C559.78,492.00 562.31,492.96 565.21,494.13 C567.45,495.03 570.64,495.74 574.02,496.23 C570.20,495.98 568.06,495.40 565.21,494.21 ZM 502.17 440.85 C502.61,441.56 503.74,441.84 505.80,442.10 C503.74,441.84 502.61,441.56 502.16,440.86 C501.57,439.92 502.17,438.23 503.39,434.80 C503.50,434.49 503.62,434.16 503.74,433.81 C505.19,429.70 505.89,426.80 506.31,421.80 C506.05,427.11 505.42,429.38 503.81,433.81 C503.68,434.15 503.57,434.48 503.45,434.79 C502.20,438.23 501.58,439.92 502.17,440.85 ZM 477.07 423.18 C477.10,425.57 477.43,426.66 478.13,427.10 C478.28,427.19 478.42,427.28 478.57,427.35 L 477.03 426.97 ZM 405.28 345.93 C412.65,343.30 420.58,342.52 428.33,343.83 C432.63,344.55 436.48,345.67 440.11,347.30 C428.70,342.36 416.38,342.00 405.28,345.93 ZM 480.47 382.72 C477.26,373.75 472.73,365.50 467.30,358.52 C471.22,363.53 474.69,369.21 477.54,375.38 C478.61,377.70 479.59,380.16 480.47,382.72 ZM 448.86 327.95 C445.54,329.04 441.91,330.72 439.27,332.29 C442.05,330.58 445.82,328.77 448.73,327.99 ZM 562.47 484.25 C559.87,483.02 558.72,481.65 557.66,478.62 C558.54,481.16 559.80,482.81 562.47,484.25 ZM 384.30 357.22 C383.52,357.50 383.03,357.74 382.75,358.00 C382.92,357.76 383.18,357.57 383.52,357.46 ZM 552.97 463.78 L 551.13 464.72 L 551.08 464.67 ZM 519.96 432.65 C519.02,434.78 518.31,437.42 517.50,441.34 C518.32,437.41 518.99,434.80 519.96,432.65 ZM 386.77 356.43 C387.47,356.12 388.00,355.51 388.00,354.97 C388.00,355.57 387.45,356.22 386.77,356.43 ZM 537.58 451.87 C537.58,451.87 537.57,451.88 537.57,451.89 C537.50,452.01 537.30,452.05 537.00,452.02 C537.23,452.01 537.42,451.96 537.58,451.87 ZM 524.21 415.88 C523.52,415.81 522.72,415.48 521.75,414.92 C522.69,415.47 523.52,415.79 524.21,415.88 ZM 555.50 472.75 C555.50,472.76 555.51,472.78 555.51,472.79 C555.54,472.86 555.57,472.94 555.61,473.03 C555.58,472.96 555.56,472.90 555.53,472.84 C555.52,472.81 555.51,472.78 555.50,472.75 Z" fill="rgb(55,159,168)"/>
<path d="M 405.28 345.93 L 405.28 345.93 C406.54,345.48 407.81,345.09 409.10,344.76 C387.54,350.48 371.53,371.12 377.43,391.40 C379.04,396.93 386.13,406.48 388.11,405.78 C388.55,405.63 389.96,403.51 391.25,401.08 C394.25,395.38 398.41,392.14 400.79,393.63 C403.43,395.29 403.35,398.39 400.56,402.51 C390.63,417.14 398.39,438.27 416.82,446.81 C421.91,449.16 424.05,449.49 437.50,449.97 C450.22,450.42 453.03,450.81 456.00,452.55 C456.49,452.84 456.96,453.15 457.40,453.46 C455.84,452.57 454.59,452.50 454.41,453.50 C453.81,456.84 452.57,459.00 451.25,459.00 C450.25,459.00 450.63,459.71 452.37,461.07 C450.05,459.25 448.34,459.00 438.12,458.99 C424.99,458.97 418.79,457.66 410.38,453.11 C405.64,450.54 403.50,450.00 398.07,449.98 C391.00,449.95 384.38,447.63 380.15,443.69 C376.66,440.43 373.84,434.28 374.19,430.68 C374.47,427.79 374.81,427.50 377.92,427.50 C381.05,427.50 381.45,427.86 382.75,431.74 C384.16,435.98 387.36,439.05 392.37,440.95 C395.72,442.22 395.67,441.60 391.93,434.68 C390.05,431.21 388.64,426.88 388.29,423.51 L 387.72 418.00 L 381.61 418.00 C374.24,418.01 370.20,420.14 366.52,425.96 C363.49,430.76 359.65,431.51 357.88,427.65 C355.44,422.29 364.38,412.19 373.62,409.87 L 377.84 408.80 L 374.38 404.28 C372.48,401.79 370.40,397.78 369.76,395.37 C369.11,392.97 368.04,391.00 367.37,391.00 C365.09,391.00 355.42,400.82 352.60,406.00 C350.68,409.53 349.54,413.46 349.03,418.34 C348.61,422.28 348.21,424.09 348.14,422.36 C348.00,419.19 346.59,418.00 342.98,418.00 C341.57,418.00 341.01,418.92 340.68,421.75 C340.44,423.81 340.42,422.12 340.63,418.00 C341.33,404.35 349.77,391.10 362.26,384.05 C367.52,381.08 367.75,380.78 368.32,375.97 C369.30,367.69 374.43,358.38 382.41,350.42 C382.80,350.03 383.20,349.64 383.60,349.26 C382.96,350.16 383.29,350.60 384.25,351.35 C385.21,352.10 386.00,353.26 386.00,353.92 C386.00,354.58 386.45,354.84 387.00,354.50 C387.55,354.16 388.00,354.37 388.00,354.97 C388.00,355.57 387.45,356.22 386.77,356.43 C386.76,356.43 386.76,356.43 386.75,356.44 C385.72,356.74 384.92,356.99 384.30,357.22 L 383.52 357.46 C383.18,357.57 382.92,357.76 382.75,358.00 C382.33,358.39 382.37,358.81 382.62,359.46 C383.08,360.65 384.49,359.83 388.86,355.84 C393.71,351.40 399.31,348.06 405.28,345.93 ZM 479.83 533.15 C475.25,536.55 469.75,540.94 467.60,542.91 C465.46,544.89 464.02,545.94 464.41,545.25 C464.80,544.56 464.74,544.00 464.27,544.00 C463.81,544.00 462.68,542.73 461.76,541.17 C460.09,538.34 460.09,538.33 464.29,534.36 C466.61,532.17 470.67,528.67 473.32,526.56 L 478.15 522.74 L 468.96 517.37 C463.91,514.42 459.66,512.00 459.53,512.00 C459.39,512.00 459.02,514.22 458.69,516.93 C457.99,522.91 455.13,528.74 450.29,534.10 C445.14,539.80 443.77,540.34 439.55,538.32 C437.60,537.39 436.00,536.10 436.00,535.45 C436.00,534.80 437.79,533.08 439.98,531.63 C446.54,527.29 452.36,514.86 450.53,509.10 C450.13,507.83 447.83,506.33 444.23,504.98 C434.46,501.33 433.83,501.38 431.00,506.12 C428.64,510.07 421.06,516.00 418.37,516.00 C417.69,516.00 416.85,515.10 416.50,514.01 C416.15,512.91 415.19,511.33 414.36,510.51 C413.03,509.17 413.12,508.90 415.24,508.10 C418.26,506.95 424.00,502.15 424.00,500.77 C424.00,500.06 419.53,499.88 410.25,500.23 C402.69,500.51 397.40,500.38 398.50,499.94 C399.60,499.50 400.14,499.11 399.70,499.07 C399.26,499.03 399.32,498.24 399.84,497.32 C400.92,495.39 399.47,493.46 396.43,492.80 C395.37,492.57 399.90,492.04 406.50,491.62 C430.15,490.13 441.97,493.26 469.79,508.39 C488.63,518.62 498.17,522.07 509.59,522.75 C520.81,523.42 531.12,519.86 538.65,513.65 C537.20,515.02 535.77,516.16 534.50,516.92 C533.13,517.74 532.89,518.28 533.75,518.64 C534.44,518.93 535.00,519.74 535.00,520.43 C535.00,521.13 536.01,522.16 537.25,522.72 C538.60,523.34 539.75,523.45 541.15,522.80 C528.47,531.69 511.24,534.10 494.54,528.94 L 488.16 526.97 ZM 481.96 489.54 C476.50,491.50 461.24,492.27 454.63,490.91 C443.57,488.64 429.29,479.53 426.89,473.20 C424.60,467.20 431.23,464.70 435.08,470.12 C442.33,480.29 464.92,486.18 478.90,481.53 C484.41,479.70 488.01,480.60 487.98,483.79 C487.96,486.61 486.65,487.86 481.96,489.54 ZM 446.08 420.52 C447.53,420.99 447.90,420.89 447.66,419.45 L 449.13 424.16 C449.05,424.08 449.00,424.00 449.00,423.93 C449.00,423.42 448.64,423.00 448.20,423.00 C447.77,423.00 447.30,424.58 447.17,426.50 C447.04,428.42 447.38,430.00 447.91,430.00 C448.45,430.00 448.72,430.85 448.52,431.88 C448.23,433.40 448.93,433.89 452.08,434.40 C454.58,434.80 457.23,435.61 459.80,436.71 C452.29,433.76 443.29,432.82 433.47,434.06 C425.32,435.08 423.93,435.02 420.90,433.49 C412.56,429.27 408.57,422.61 409.20,413.95 C409.72,406.72 412.02,403.00 415.96,403.00 C420.04,403.00 420.52,404.43 418.46,410.49 C416.92,415.02 416.85,416.22 417.96,418.91 C418.68,420.64 420.51,422.94 422.03,424.02 C424.16,425.54 425.47,425.85 430.39,425.51 C430.48,425.64 430.69,425.80 431.00,426.00 C432.92,427.24 433.73,427.24 434.50,426.00 C434.70,425.67 434.49,425.39 433.96,425.22 L 440.19 424.69 L 439.59 421.60 C438.34,415.15 432.64,405.49 426.40,399.23 C425.28,398.11 424.16,397.06 423.04,396.09 C430.49,402.29 436.26,410.70 439.39,420.29 C439.86,421.76 440.34,421.89 442.02,420.99 C443.15,420.38 444.98,420.18 446.08,420.52 ZM 421.80 480.80 C418.72,483.88 405.78,480.52 399.50,475.01 C398.40,474.05 396.83,473.22 396.00,473.16 C395.17,473.11 392.92,472.87 391.00,472.63 C389.08,472.39 386.83,472.70 386.00,473.31 C385.17,473.93 385.46,473.33 386.63,471.97 C389.58,468.54 391.00,465.54 391.00,462.77 C391.00,456.89 396.86,456.26 400.37,461.75 C404.80,468.70 411.46,473.00 417.77,473.00 C421.13,473.00 423.00,474.61 423.00,477.50 C423.00,478.65 422.46,480.14 421.80,480.80 ZM 514.53 512.55 C502.12,517.74 477.76,506.64 485.20,499.20 C487.00,497.40 488.78,497.73 492.52,500.58 C497.82,504.62 504.14,506.16 509.95,504.82 C516.17,503.39 518.00,504.11 518.00,508.02 C518.00,510.59 517.43,511.34 514.53,512.55 ZM 409.97 388.29 C406.40,387.05 402.62,386.38 398.50,386.23 C394.10,386.06 389.50,385.71 388.28,385.45 C385.24,384.80 383.61,381.59 385.00,379.00 C385.89,377.34 387.09,377.00 392.04,377.00 L 398.00 377.00 L 398.02 373.25 C398.06,365.92 402.15,359.72 408.69,355.95 C402.05,360.23 397.94,366.72 398.17,373.00 C398.29,376.26 398.33,376.30 398.73,373.58 C399.06,371.38 399.39,371.00 400.07,372.08 C400.75,373.15 400.99,372.89 401.06,371.00 C401.12,369.62 401.38,369.06 401.66,369.75 C402.62,372.13 406.51,371.11 408.35,367.99 C408.95,366.98 409.73,366.05 410.67,365.22 C408.32,367.43 407.00,370.36 407.00,373.78 C407.00,376.89 407.10,377.53 410.33,378.97 C407.93,378.12 406.33,377.88 406.33,378.56 C406.33,379.30 406.78,379.64 407.32,379.30 C408.64,378.49 407.22,380.92 404.82,383.60 C402.93,385.70 402.94,385.71 408.76,387.83 C409.17,387.98 409.57,388.13 409.97,388.29 ZM 459.45 459.65 L 461.45 457.49 C464.20,461.48 464.67,466.46 462.55,471.53 C460.92,475.44 460.36,475.64 457.22,473.44 C456.36,472.84 455.80,472.20 455.46,471.28 L 456.18 467.33 C456.73,464.34 458.11,461.09 459.45,459.65 ZM 485.78 472.83 C485.56,472.18 484.41,471.59 483.21,471.50 C482.36,471.43 481.88,471.47 481.71,471.64 C481.22,470.24 480.59,467.66 480.10,465.00 C478.37,455.46 475.87,449.04 472.24,444.91 C474.06,446.75 475.39,448.64 475.98,450.42 C476.96,453.40 477.40,453.69 480.53,453.44 C483.18,453.23 484.03,453.56 484.12,454.83 C484.33,457.80 483.85,459.46 482.29,461.21 C481.21,462.42 480.99,463.73 481.55,465.71 C481.98,467.24 482.26,468.82 482.18,469.21 C482.09,469.61 482.61,469.70 483.32,469.43 C484.04,469.15 485.20,470.01 485.91,471.33 C487.06,473.47 488.05,473.79 495.26,474.28 C496.37,474.36 497.35,474.44 498.26,474.53 C496.81,474.40 495.14,474.32 493.04,474.22 C490.27,474.08 487.70,473.84 485.75,473.56 C485.86,473.38 485.88,473.14 485.78,472.83 ZM 428.96 389.75 C434.91,394.79 439.74,400.99 443.32,408.20 C439.69,401.57 434.35,394.65 428.96,389.75 ZM 405.50 382.00 C405.84,381.45 405.64,381.00 405.06,381.00 C404.48,381.00 404.00,381.45 404.00,382.00 C404.00,382.55 404.20,383.00 404.44,383.00 C404.68,383.00 405.16,382.55 405.50,382.00 ZM 550.86 485.91 C550.13,478.76 546.19,471.77 540.06,465.91 C546.49,471.85 550.15,478.62 550.86,485.91 ZM 397.66 339.46 C403.88,336.52 410.49,335.03 417.47,335.01 C411.03,335.02 403.95,336.68 397.66,339.46 ZM 438.68 355.22 C440.06,356.10 441.44,357.21 442.96,358.58 C444.88,360.32 446.44,362.08 447.69,363.96 C445.42,360.78 441.94,357.42 438.68,355.22 ZM 455.18 470.21 C455.05,469.48 455.00,468.60 455.00,467.52 C455.00,465.77 454.88,464.58 454.49,463.63 C454.91,464.64 455.07,465.91 455.12,467.82 ZM 450.71 370.64 C451.26,372.65 451.61,374.85 451.79,377.30 C451.63,375.05 451.24,372.70 450.71,370.64 ZM 466.96 430.65 C462.69,428.46 458.24,426.78 454.35,425.97 L 454.50 426.00 C458.29,426.79 462.70,428.46 466.96,430.65 ZM 555.18 506.18 C556.89,502.74 558.14,499.26 558.56,496.45 C558.13,499.30 556.90,502.75 555.18,506.18 ZM 550.67 492.74 C550.88,491.26 550.98,489.75 550.98,488.21 C550.98,488.07 550.98,487.92 550.97,487.78 C551.02,489.41 550.92,491.07 550.67,492.74 Z" fill="rgb(58,76,185)"/>
<path d="M 408.95 538.95 C422.85,541.02 437.02,536.18 444.51,527.28 C443.11,529.06 441.56,530.58 439.98,531.63 C437.79,533.08 436.00,534.80 436.00,535.45 C436.00,536.10 437.60,537.39 439.55,538.32 C442.20,539.58 443.72,539.84 445.76,538.46 C443.41,540.96 442.38,543.23 440.64,548.76 C439.22,553.23 437.77,559.95 437.40,563.70 C436.61,571.67 435.63,574.00 433.04,574.00 C428.99,574.00 427.77,571.23 428.52,563.78 C428.90,559.98 429.83,554.55 430.57,551.73 C431.32,548.90 431.76,546.43 431.56,546.23 C431.36,546.03 428.59,546.34 425.41,546.93 C395.67,552.43 367.37,534.19 362.80,506.59 C361.72,500.07 361.67,500.01 356.52,497.10 C335.10,485.01 327.80,457.53 341.06,438.91 C343.17,435.95 343.17,435.82 341.47,429.54 C338.40,418.18 341.58,405.46 349.09,395.59 C344.11,402.15 341.04,410.01 340.63,418.00 C340.42,422.12 340.44,423.81 340.68,421.75 C341.01,418.92 341.57,418.00 342.98,418.00 C346.59,418.00 348.00,419.19 348.14,422.36 C348.21,424.09 348.61,422.28 349.03,418.34 C349.19,416.80 349.41,415.36 349.70,413.99 C349.54,415.63 349.51,417.65 349.51,420.50 C349.52,428.30 349.87,430.17 352.18,434.56 C355.57,441.01 361.72,446.56 368.88,449.66 C378.29,453.72 379.49,454.49 379.80,456.62 C380.33,460.30 377.56,461.52 371.98,460.09 C369.28,459.40 366.61,459.12 366.04,459.48 C364.15,460.64 364.84,468.53 367.09,471.39 C369.60,474.57 374.01,477.00 377.30,477.00 C382.13,477.00 389.42,470.05 390.78,464.70 C390.27,466.93 388.90,469.32 386.63,471.97 C385.46,473.33 385.17,473.93 386.00,473.31 C386.83,472.70 389.08,472.39 391.00,472.63 C392.92,472.87 395.17,473.11 396.00,473.16 C396.20,473.18 396.44,473.23 396.70,473.33 L 393.33 477.06 C386.13,485.05 375.63,487.28 366.91,482.67 C358.32,478.14 353.88,466.95 356.97,457.60 C358.18,453.92 358.17,453.90 353.40,449.71 C350.78,447.39 348.16,445.50 347.59,445.50 C345.81,445.50 343.11,454.25 343.05,460.21 C342.93,472.80 351.08,485.03 363.28,490.58 C368.76,493.08 370.69,493.42 379.50,493.44 C383.46,493.45 390.08,493.15 396.29,492.70 C396.25,492.74 396.30,492.77 396.43,492.80 C399.47,493.46 400.92,495.39 399.84,497.32 C399.32,498.24 399.26,499.03 399.70,499.07 C400.14,499.11 399.60,499.50 398.50,499.94 C397.49,500.34 401.87,500.48 408.45,500.29 C403.77,500.54 398.54,500.99 393.54,501.60 C386.37,502.48 378.31,502.95 375.63,502.63 L 370.75 502.07 L 371.42 506.24 C374.09,522.95 389.05,535.98 408.95,538.95 ZM 479.83 533.15 L 488.16 526.97 L 488.19 526.98 L 478.10 534.52 C464.09,545.00 458.26,553.01 455.90,565.04 C455.20,568.59 453.97,572.29 453.16,573.25 C451.47,575.26 451.14,575.31 448.75,573.92 C445.12,571.80 447.38,558.44 453.07,548.41 C455.18,544.70 457.88,541.08 461.22,537.48 C460.32,538.72 460.71,539.39 461.76,541.17 C462.68,542.73 463.81,544.00 464.27,544.00 C464.74,544.00 464.80,544.56 464.41,545.25 C464.02,545.94 465.46,544.89 467.60,542.91 C469.75,540.94 475.25,536.55 479.83,533.15 ZM 418.60 515.99 C414.85,517.47 410.56,518.42 405.96,518.74 C398.71,519.24 397.32,519.65 394.41,522.21 C391.64,524.64 390.76,524.94 389.05,524.03 C386.05,522.42 386.39,517.96 389.75,514.75 C393.54,511.14 397.06,510.00 404.44,510.00 C407.77,510.00 411.96,509.40 414.00,508.64 C413.17,509.11 413.37,509.51 414.36,510.51 C415.19,511.33 416.15,512.91 416.50,514.01 C416.85,515.10 417.69,516.00 418.37,516.00 C418.44,516.00 418.52,516.00 418.60,515.99 ZM 427.53 491.99 C439.28,493.47 450.05,497.70 464.98,505.81 C449.32,497.55 438.86,493.48 427.53,491.99 ZM 432.85 503.47 C432.24,504.51 431.11,506.18 429.90,507.82 C428.21,510.11 425.91,512.12 423.14,513.77 C426.17,511.68 429.56,508.53 431.00,506.12 C431.69,504.96 432.25,504.08 432.85,503.47 ZM 476.15 399.16 C476.91,404.17 477.21,409.53 477.15,415.73 C477.23,407.84 476.54,400.56 475.04,393.82 C475.47,395.58 475.84,397.36 476.15,399.16 ZM 445.66 350.32 C443.85,349.16 442.01,348.16 440.11,347.30 C429.99,342.92 419.16,342.14 409.10,344.76 C412.74,343.79 416.53,343.25 420.41,343.21 C420.62,343.21 420.83,343.21 421.04,343.21 C421.34,343.21 421.64,343.21 421.94,343.22 C423.62,343.26 425.31,343.39 427.01,343.62 C427.45,343.68 427.89,343.75 428.33,343.83 C430.03,344.11 431.66,344.46 433.24,344.88 C437.73,346.07 441.76,347.82 445.66,350.32 ZM 550.67 492.74 C550.34,495.00 549.74,497.29 548.87,499.62 C548.56,500.45 548.13,501.36 547.60,502.32 C549.82,497.75 551.00,492.70 550.97,487.90 C550.98,488.01 550.98,488.11 550.98,488.21 C550.98,489.75 550.88,491.26 550.67,492.74 ZM 443.39 504.67 C440.43,503.59 437.15,502.66 435.16,502.39 C436.78,502.31 439.17,503.10 443.39,504.67 ZM 449.28 518.84 C450.96,514.30 451.28,510.19 449.97,508.21 C450.25,508.51 450.44,508.81 450.53,509.10 C451.30,511.52 450.71,515.14 449.28,518.84 ZM 415.12 508.15 C417.00,507.22 419.19,505.78 420.91,504.39 C419.07,505.95 416.80,507.51 415.24,508.10 C415.20,508.12 415.16,508.13 415.12,508.15 ZM 530.80 475.25 L 529.07 475.60 C528.27,475.77 527.36,475.75 526.21,475.53 C526.29,475.54 526.37,475.54 526.45,475.55 C527.73,475.68 529.03,475.56 530.80,475.25 ZM 544.10 470.34 C542.15,467.92 539.86,465.64 537.30,463.55 C538.27,464.32 539.19,465.11 540.06,465.91 C541.54,467.33 542.89,468.81 544.10,470.34 ZM 423.99 500.86 C423.87,500.43 422.19,500.17 419.51,500.07 C422.53,500.13 424.00,500.36 424.00,500.77 C424.00,500.80 424.00,500.83 423.99,500.86 ZM 534.66 516.53 C536.39,515.40 538.04,514.13 539.61,512.71 C539.29,513.03 538.97,513.34 538.65,513.65 C537.39,514.68 536.06,515.65 534.66,516.53 ZM 393.75 458.12 C395.72,457.48 398.38,458.63 400.37,461.75 C398.42,458.69 395.74,457.54 393.75,458.12 ZM 422.60 475.45 C422.20,474.56 421.51,473.91 420.55,473.50 C421.09,473.69 421.54,473.94 421.80,474.20 C422.14,474.54 422.41,474.97 422.60,475.45 ZM 464.79 533.89 C466.29,532.47 467.90,531.05 469.61,529.63 C467.89,531.10 466.13,532.66 464.79,533.89 ZM 457.73 360.70 C457.17,360.10 456.60,359.50 456.01,358.90 C452.52,355.37 449.14,352.55 445.66,350.32 C449.15,352.55 452.52,355.37 456.02,358.90 C456.60,359.49 457.17,360.09 457.73,360.70 ZM 522.92 455.02 C523.80,455.38 524.60,455.73 525.29,456.06 C524.51,455.70 523.72,455.35 522.92,455.02 ZM 445.96 505.69 C445.38,505.44 444.76,505.19 444.11,504.94 L 444.23 504.98 C444.84,505.21 445.42,505.45 445.96,505.69 ZM 459.53 512.00 C459.39,512.01 459.02,514.22 458.69,516.93 C459.01,514.23 459.39,512.01 459.53,512.00 ZM 458.54 518.02 C458.60,517.69 458.64,517.36 458.68,517.04 C458.64,517.36 458.60,517.69 458.54,518.02 Z" fill="rgb(64,49,185)"/>
<path d="M 612.34 451.70 C618.77,458.58 619.01,458.60 623.18,452.75 L 625.26 449.83 L 620.20 445.00 C609.44,434.74 603.64,422.53 603.55,409.96 C603.51,404.23 603.95,401.73 605.35,399.59 C607.17,396.81 607.16,396.72 605.16,394.71 C602.63,392.19 601.18,393.14 597.19,399.92 C594.94,403.76 594.51,405.63 594.56,411.50 C594.59,414.66 595.10,418.12 596.01,421.70 C595.41,419.47 594.92,417.23 594.54,415.01 C593.95,411.44 593.72,409.78 592.78,409.09 C591.97,408.49 590.64,408.60 588.11,408.81 C587.96,408.82 587.80,408.83 587.63,408.85 C586.75,408.92 586.30,409.12 586.16,410.05 C585.90,405.59 586.35,403.91 588.42,399.39 C589.90,396.15 592.48,392.09 594.15,390.36 L 597.18 387.22 L 593.50 386.00 C589.97,384.83 589.68,384.92 586.37,388.13 C581.41,392.93 578.41,399.70 577.52,407.17 C577.63,406.11 577.77,405.05 577.94,403.99 C578.93,397.90 578.95,395.37 578.03,392.58 C577.38,390.61 576.46,389.00 576.00,389.00 C575.53,389.00 573.88,391.59 572.33,394.75 C571.97,395.50 571.65,396.17 571.37,396.80 C571.74,395.95 572.18,395.02 572.70,393.92 C574.45,390.31 576.61,386.74 577.50,386.00 C578.47,385.20 578.92,383.80 578.61,382.57 C577.58,378.47 581.43,376.00 588.85,376.00 C598.59,376.00 608.41,383.15 618.38,397.51 L 620.25 400.21 L 626.38 394.08 L 621.44 386.91 C609.48,369.55 596.90,363.96 580.00,368.50 C576.97,369.31 574.40,369.98 574.28,369.99 C574.16,369.99 572.52,368.45 570.63,366.56 C564.11,360.04 554.61,360.92 547.47,368.69 C543.19,373.36 540.65,373.99 538.69,370.87 C537.32,368.70 540.01,363.01 543.97,359.68 C551.64,353.22 565.90,352.02 573.68,357.17 C577.46,359.67 577.91,359.74 583.38,358.64 L 589.12 357.49 L 586.31 354.81 C584.77,353.33 580.38,350.66 576.56,348.88 C570.58,346.08 568.57,345.64 561.98,345.68 C555.88,345.72 553.12,346.28 548.24,348.47 C541.91,351.31 540.73,351.24 538.95,347.90 C538.06,346.24 538.41,345.42 541.08,342.92 L 544.28 339.93 L 542.06 337.56 C538.83,334.12 529.38,329.40 522.87,327.97 C513.58,325.93 501.61,327.06 493.80,330.71 C490.22,332.39 486.09,335.28 483.11,337.94 C485.59,335.60 488.73,333.16 491.13,331.93 C496.65,329.12 505.87,326.06 508.92,326.02 C510.25,326.01 511.05,325.72 510.70,325.37 C510.35,325.02 510.52,323.90 511.07,322.87 C511.76,321.57 511.73,321.00 510.98,321.00 C510.37,321.00 510.16,320.55 510.50,320.00 C511.61,318.20 503.19,318.88 495.89,321.04 C514.56,314.94 532.92,318.69 548.71,331.83 L 554.91 337.00 L 562.21 337.02 C575.76,337.06 591.47,345.06 599.51,356.02 C601.80,359.13 605.02,362.00 607.87,363.46 C613.97,366.59 627.78,381.06 631.27,388.00 C632.79,391.02 634.59,394.33 635.27,395.34 C636.32,396.92 636.14,397.42 634.00,398.82 C630.49,401.13 619.36,411.78 615.85,416.20 L 612.91 419.90 L 614.98 423.95 C616.11,426.18 617.23,428.00 617.46,428.00 C617.69,428.00 622.08,423.75 627.22,418.55 C637.35,408.31 644.21,404.06 646.66,406.52 C648.28,408.13 648.40,411.20 646.92,412.68 C646.14,413.46 646.39,414.86 647.78,417.63 C650.21,422.46 652.81,430.55 653.20,434.50 C653.48,437.35 653.72,437.49 657.71,437.31 C660.02,437.21 663.95,436.23 666.44,435.13 C670.66,433.26 671.17,433.24 674.23,434.72 C676.87,436.00 677.87,436.47 677.92,437.02 C677.95,437.35 677.65,437.71 677.17,438.30 L 677.08 438.40 C676.09,439.59 676.68,440.32 680.47,442.54 C683.73,444.45 684.91,445.71 684.54,446.88 C684.20,447.95 684.81,448.88 686.25,449.52 C687.48,450.06 688.62,451.22 688.79,452.09 C689.29,454.78 684.21,453.68 675.26,449.15 C667.31,445.14 666.77,445.01 660.23,445.62 L 653.44 446.25 L 651.64 452.37 C650.65,455.74 648.55,460.60 646.98,463.18 L 645.58 465.45 C645.97,464.53 646.13,463.84 645.88,463.67 C645.67,463.52 644.20,462.84 642.60,462.16 C639.86,460.97 639.50,461.12 635.89,464.87 C635.75,465.02 635.62,465.16 635.49,465.31 C637.49,462.79 640.13,458.66 642.19,454.69 C645.45,448.40 645.89,435.35 643.10,427.94 C641.94,424.88 640.36,421.51 639.57,420.44 C638.19,418.55 638.07,418.58 635.12,421.39 C632.12,424.26 632.11,424.31 633.79,427.39 C635.01,429.62 635.48,432.89 635.48,439.00 C635.47,449.81 632.91,455.12 623.85,463.08 C623.31,463.56 622.82,463.99 622.37,464.38 L 624.83 462.09 C628.77,458.42 632.00,454.65 632.00,453.71 C632.00,451.09 628.09,451.62 625.78,454.55 C624.68,455.96 623.52,456.86 623.22,456.55 C622.91,456.24 621.67,456.64 620.47,457.43 C618.43,458.77 618.01,458.58 614.28,454.68 C608.12,448.24 602.90,440.00 599.27,431.22 C602.45,438.70 607.03,446.03 612.34,451.70 ZM 640.75 472.46 C641.75,471.76 643.22,469.76 644.35,467.84 L 664.31 467.28 C682.74,466.77 685.24,466.90 693.00,468.86 C704.79,471.82 713.00,476.26 721.64,484.32 C729.20,491.39 731.16,494.90 728.99,497.51 C726.85,500.09 725.08,499.20 716.93,491.44 C711.52,486.28 707.00,482.98 702.75,481.08 C691.20,475.92 688.23,475.50 663.00,475.47 C650.08,475.45 637.53,475.34 635.12,475.22 C631.40,475.03 630.85,475.00 631.16,472.98 C631.19,473.93 632.03,474.00 634.67,474.00 C636.81,474.00 639.54,473.31 640.75,472.46 ZM 649.67 492.24 C662.10,492.22 674.00,491.41 674.00,489.94 C674.00,489.48 672.93,487.94 671.61,486.53 L 669.22 483.95 L 651.36 484.08 C644.73,484.12 639.46,484.02 635.03,483.68 C641.22,484.06 649.20,483.91 660.60,483.44 C674.73,482.85 678.98,483.02 685.10,484.38 C698.46,487.36 709.21,493.92 715.42,502.88 C718.44,507.25 718.27,510.46 714.97,511.51 C712.41,512.32 710.61,511.20 707.81,507.04 C704.66,502.37 698.28,497.66 691.28,494.83 C685.76,492.60 684.28,492.49 657.92,492.32 C654.96,492.30 652.21,492.27 649.67,492.24 ZM 544.68 370.75 C545.19,370.06 545.72,368.09 545.86,366.38 C546.11,363.45 545.94,363.29 543.31,363.78 C540.62,364.28 539.05,365.57 539.02,367.31 C539.01,367.75 539.56,367.78 540.25,367.37 C541.14,366.83 541.12,367.09 540.16,368.26 C539.43,369.17 539.12,370.38 539.47,370.96 C540.36,372.39 543.56,372.27 544.68,370.75 ZM 624.59 438.10 C627.66,441.49 628.87,439.83 627.37,434.25 C626.62,431.45 625.85,431.41 624.17,434.10 C623.06,435.88 623.12,436.47 624.59,438.10 ZM 611.00 406.06 C611.00,407.19 611.45,407.84 612.00,407.50 C612.55,407.16 613.00,406.23 613.00,405.44 C613.00,404.65 612.55,404.00 612.00,404.00 C611.45,404.00 611.00,404.93 611.00,406.06 ZM 685.08 452.31 C685.14,453.16 685.30,453.14 685.66,452.24 C685.94,451.55 686.65,451.28 687.24,451.65 C687.88,452.04 688.02,451.84 687.59,451.14 C686.73,449.76 684.96,450.59 685.08,452.31 ZM 542.83 448.37 C546.67,446.06 549.84,445.04 557.87,443.35 C552.31,444.61 546.74,446.51 542.83,448.37 ZM 625.46 490.85 C621.17,490.18 618.30,489.23 615.79,487.89 C616.76,488.40 620.46,489.59 624.02,490.53 C624.45,490.64 624.93,490.75 625.46,490.85 ZM 634.39 466.58 C633.09,468.18 632.00,469.88 631.57,470.99 C632.01,469.44 632.81,467.91 633.51,467.39 C633.77,467.20 634.06,466.93 634.39,466.58 ZM 580.89 429.25 C582.00,431.83 582.84,433.25 583.86,433.67 C582.84,433.25 581.99,431.83 580.87,429.25 C579.40,425.84 578.38,422.34 577.81,418.72 C578.39,422.26 579.41,425.80 580.89,429.25 ZM 492.03 322.30 L 486.63 324.11 L 486.57 324.08 ZM 614.84 467.06 C613.39,466.17 610.06,462.90 607.42,459.77 C610.06,462.90 613.42,466.19 614.92,467.10 L 615.30 467.33 C615.15,467.24 615.00,467.15 614.84,467.06 ZM 587.82 421.96 C588.11,423.20 588.40,424.35 588.68,425.28 C589.37,427.63 589.74,428.89 589.69,429.76 C589.73,428.86 589.33,427.50 588.56,424.93 C588.32,424.11 588.07,423.09 587.82,421.96 ZM 537.58 451.87 C537.52,451.90 537.45,451.93 537.38,451.95 L 537.67 451.76 C537.64,451.80 537.61,451.83 537.58,451.87 Z" fill="rgb(94,176,156)"/>
<path d="M 626.46 405.27 C629.57,402.35 632.49,399.81 634.00,398.82 C636.14,397.42 636.32,396.92 635.27,395.34 C634.59,394.33 632.79,391.02 631.27,388.00 C627.78,381.06 613.97,366.59 607.87,363.46 C605.60,362.30 603.10,360.25 601.03,357.89 C603.27,360.43 605.92,362.42 609.60,364.37 C615.53,367.52 616.40,367.72 619.79,366.71 C621.83,366.10 628.45,365.64 634.50,365.69 C643.22,365.76 647.36,366.32 654.50,368.39 C687.55,378.01 696.88,379.44 707.98,376.59 C719.74,373.57 729.15,366.00 733.16,356.34 C735.69,350.21 738.23,348.79 741.23,351.79 C743.04,353.59 743.11,354.15 741.96,357.64 C740.16,363.11 736.92,367.94 731.72,372.90 C722.80,381.40 714.21,384.87 700.00,385.70 C689.06,386.34 683.05,385.31 661.00,378.98 C649.31,375.63 644.34,374.72 635.39,374.28 C629.18,373.97 624.04,374.13 623.72,374.64 C623.42,375.14 624.95,378.19 627.12,381.43 C629.30,384.67 631.41,387.91 631.81,388.63 C632.40,389.68 633.79,389.54 638.86,387.97 C647.34,385.33 659.23,385.36 668.93,388.05 C673.00,389.18 683.57,393.21 692.41,397.01 C711.30,405.12 717.90,407.00 727.46,406.99 C735.26,406.98 742.70,404.22 746.72,399.85 C749.14,397.22 752.00,390.02 752.00,386.57 C752.00,383.80 753.80,382.00 756.58,382.00 C761.84,382.00 762.19,388.85 757.44,398.66 C748.72,416.66 725.57,420.09 696.00,407.76 C672.94,398.15 669.53,396.86 663.20,395.37 C654.39,393.30 644.72,394.07 637.40,397.42 C634.61,398.69 630.54,401.68 626.46,405.27 ZM 646.50 413.59 C646.54,413.21 646.68,412.92 646.92,412.68 C648.40,411.20 648.28,408.13 646.66,406.52 C645.61,405.47 643.76,405.64 641.19,406.99 C646.18,404.10 650.94,403.00 656.76,403.00 C665.12,403.00 669.93,404.59 688.00,413.34 C706.14,422.12 714.56,424.45 728.00,424.40 C735.40,424.37 739.83,423.85 743.00,422.65 C758.00,416.96 767.72,403.63 769.98,385.66 C770.59,380.81 771.42,378.16 772.62,377.29 C774.91,375.61 775.52,375.66 777.54,377.68 C778.93,379.07 779.11,380.52 778.57,386.00 C777.26,399.29 772.71,409.35 763.82,418.61 C754.31,428.51 742.98,433.00 727.52,433.00 C713.63,433.00 702.69,429.78 679.91,418.96 C669.50,414.01 663.35,411.69 659.72,411.31 C654.49,410.78 647.72,412.07 646.50,413.59 ZM 673.01 448.02 C673.69,448.36 674.43,448.73 675.26,449.15 C684.21,453.68 689.29,454.78 688.79,452.09 C688.62,451.22 687.48,450.06 686.25,449.52 C684.81,448.88 684.20,447.95 684.54,446.88 C684.86,445.86 684.02,444.78 681.66,443.26 C688.10,446.80 698.35,451.38 702.72,452.51 C714.39,455.56 728.48,453.88 736.40,448.50 C740.45,445.75 742.96,445.36 744.80,447.20 C750.54,452.94 732.81,462.22 716.00,462.27 C703.65,462.30 697.21,460.45 681.29,452.27 ZM 676.67 439.17 C676.71,438.92 676.86,438.67 677.08,438.40 L 677.17 438.30 C677.65,437.71 677.95,437.35 677.92,437.02 C677.87,436.47 676.87,436.00 674.23,434.72 C671.17,433.24 670.66,433.26 666.44,435.13 C665.31,435.63 663.89,436.10 662.46,436.48 C665.83,435.29 669.60,433.45 672.66,431.35 C677.76,427.86 679.45,427.17 680.92,427.96 C684.63,429.94 684.39,432.29 680.08,436.14 ZM 685.08 452.31 C684.96,450.59 686.73,449.76 687.59,451.14 C688.02,451.84 687.88,452.04 687.24,451.65 C686.65,451.28 685.94,451.55 685.66,452.24 C685.30,453.14 685.14,453.16 685.08,452.31 ZM 647.89 417.85 C647.86,417.78 647.82,417.70 647.78,417.63 C647.27,416.61 646.91,415.78 646.71,415.10 C647.12,416.04 647.52,416.96 647.89,417.85 ZM 653.95 436.96 C653.58,436.66 653.42,436.17 653.30,435.38 C653.49,436.01 653.72,436.56 653.95,436.96 Z" fill="rgb(148,199,114)"/>
<path d="M 0.00 512.00 L 0.00 0.00 L 512.00 0.00 L 1024.00 0.00 L 1024.00 512.00 L 1024.00 1024.00 L 512.00 1024.00 L 0.00 1024.00 L 0.00 512.00 ZM 453.16 573.25 C453.97,572.29 455.20,568.59 455.90,565.04 C458.26,553.01 464.09,545.00 478.10,534.52 L 488.19 526.98 L 494.55 528.94 C514.02,534.96 534.23,530.68 547.09,517.82 C552.48,512.42 557.59,502.91 558.56,496.45 C558.93,494.00 559.38,492.00 559.58,492.00 C559.77,492.00 562.31,493.00 565.21,494.21 C569.67,496.08 572.38,496.42 582.50,496.43 C595.53,496.43 602.25,494.75 610.20,489.49 C613.03,487.61 614.49,487.19 615.79,487.89 C622.07,491.25 630.60,492.15 657.92,492.32 C684.28,492.49 685.76,492.60 691.28,494.83 C698.28,497.66 704.66,502.37 707.81,507.04 C710.61,511.20 712.41,512.32 714.97,511.51 C718.27,510.46 718.44,507.25 715.42,502.88 C709.21,493.92 698.46,487.36 685.10,484.38 C678.98,483.02 674.73,482.85 660.60,483.44 C632.09,484.62 624.96,483.76 613.80,477.81 C607.93,474.68 598.77,465.79 596.67,461.17 C595.70,459.05 595.93,458.47 598.53,456.38 C600.17,455.08 601.74,454.01 602.03,454.00 C602.33,454.00 604.73,456.57 607.38,459.72 C610.02,462.87 613.38,466.17 614.84,467.06 C617.47,468.65 617.57,468.60 623.85,463.08 C632.91,455.12 635.47,449.81 635.48,439.00 C635.48,432.89 635.01,429.62 633.79,427.39 C632.11,424.31 632.12,424.26 635.12,421.39 C638.07,418.58 638.19,418.55 639.57,420.44 C640.36,421.51 641.94,424.88 643.10,427.94 C645.89,435.35 645.45,448.40 642.19,454.69 C639.34,460.19 635.37,466.00 633.51,467.39 C632.70,468.00 631.74,469.96 631.39,471.75 C630.75,475.00 630.76,475.00 635.12,475.22 C637.53,475.34 650.08,475.45 663.00,475.47 C688.23,475.50 691.20,475.92 702.75,481.08 C707.00,482.98 711.52,486.28 716.93,491.44 C725.08,499.20 726.85,500.09 728.99,497.51 C731.16,494.90 729.20,491.39 721.64,484.32 C713.00,476.26 704.79,471.82 693.00,468.86 C685.24,466.90 682.74,466.77 664.31,467.28 L 644.11 467.85 L 646.98 463.18 C648.55,460.60 650.65,455.74 651.64,452.37 L 653.44 446.25 L 660.26 445.61 L 667.08 444.98 L 681.29 452.27 C697.21,460.45 703.65,462.30 716.00,462.27 C732.81,462.22 750.54,452.94 744.80,447.20 C742.96,445.36 740.45,445.75 736.40,448.50 C728.48,453.88 714.39,455.56 702.72,452.51 C697.46,451.15 683.67,444.79 678.28,441.26 L 676.00 439.77 L 680.08 436.14 C684.39,432.29 684.63,429.94 680.92,427.96 C679.45,427.17 677.76,427.86 672.66,431.35 C666.48,435.58 657.43,438.76 654.63,437.69 C653.89,437.40 653.06,435.22 652.79,432.83 C652.38,429.28 650.17,422.90 646.36,414.31 C645.56,412.51 653.67,410.70 659.72,411.31 C663.35,411.69 669.50,414.01 679.91,418.96 C702.69,429.78 713.63,433.00 727.52,433.00 C742.98,433.00 754.31,428.51 763.82,418.61 C772.71,409.35 777.26,399.29 778.57,386.00 C779.11,380.52 778.93,379.07 777.54,377.68 C775.52,375.66 774.91,375.61 772.62,377.29 C771.42,378.16 770.59,380.81 769.98,385.66 C767.72,403.63 758.00,416.96 743.00,422.65 C739.83,423.85 735.40,424.37 728.00,424.40 C714.56,424.45 706.14,422.12 688.00,413.34 C669.93,404.59 665.12,403.00 656.76,403.00 C646.01,403.00 638.88,406.76 627.19,418.58 C622.07,423.76 617.69,428.00 617.46,428.00 C617.23,428.00 616.11,426.18 614.98,423.95 L 612.91 419.90 L 615.85 416.20 C621.66,408.88 631.96,399.91 637.40,397.42 C644.72,394.07 654.39,393.30 663.20,395.37 C669.53,396.86 672.94,398.15 696.00,407.76 C725.57,420.09 748.72,416.66 757.44,398.66 C762.19,388.85 761.84,382.00 756.58,382.00 C753.80,382.00 752.00,383.80 752.00,386.57 C752.00,390.02 749.14,397.22 746.72,399.85 C742.70,404.22 735.26,406.98 727.46,406.99 C717.90,407.00 711.30,405.12 692.41,397.01 C683.57,393.21 673.00,389.18 668.93,388.05 C659.23,385.36 647.34,385.33 638.86,387.97 C633.79,389.54 632.40,389.68 631.81,388.63 C631.41,387.91 629.30,384.67 627.12,381.43 C624.95,378.19 623.42,375.14 623.72,374.64 C624.04,374.13 629.18,373.97 635.39,374.28 C644.34,374.72 649.31,375.63 661.00,378.98 C683.05,385.31 689.06,386.34 700.00,385.70 C714.21,384.87 722.80,381.40 731.72,372.90 C736.92,367.94 740.16,363.11 741.96,357.64 C743.11,354.15 743.04,353.59 741.23,351.79 C738.23,348.79 735.69,350.21 733.16,356.34 C729.15,366.00 719.74,373.57 707.98,376.59 C696.88,379.44 687.55,378.01 654.50,368.39 C647.36,366.32 643.22,365.76 634.50,365.69 C628.45,365.64 621.83,366.10 619.79,366.71 C616.40,367.72 615.53,367.52 609.60,364.37 C605.03,361.94 602.04,359.46 599.46,355.94 C591.47,345.06 575.72,337.06 562.21,337.02 L 554.91 337.00 L 548.71 331.83 C532.92,318.69 514.55,314.94 495.88,321.04 L 486.57 324.08 L 480.54 321.34 C475.53,319.06 472.74,318.52 464.20,318.18 C448.99,317.57 437.06,321.65 427.97,330.56 C423.63,334.81 423.17,335.00 417.47,335.01 C404.43,335.04 392.63,340.22 382.41,350.42 C374.43,358.38 369.30,367.69 368.32,375.97 C367.75,380.78 367.52,381.08 362.26,384.05 C345.91,393.27 336.96,412.87 341.47,429.54 C343.17,435.82 343.17,435.95 341.06,438.91 C327.80,457.53 335.10,485.01 356.52,497.10 C361.67,500.01 361.72,500.07 362.80,506.59 C367.37,534.19 395.67,552.43 425.41,546.93 C428.59,546.34 431.36,546.03 431.56,546.23 C431.76,546.43 431.32,548.90 430.57,551.73 C429.83,554.55 428.90,559.98 428.52,563.78 C427.77,571.23 428.99,574.00 433.04,574.00 C435.63,574.00 436.61,571.67 437.40,563.70 C437.77,559.95 439.22,553.23 440.64,548.76 C442.83,541.80 443.89,540.01 447.89,536.41 C453.70,531.19 457.90,523.65 458.68,517.04 C459.01,514.27 459.39,512.00 459.53,512.00 C459.66,512.00 463.92,514.42 468.98,517.38 L 478.19 522.77 L 471.25 528.30 C462.95,534.93 456.98,541.52 453.07,548.41 C447.38,558.44 445.12,571.80 448.75,573.92 C451.14,575.31 451.47,575.26 453.16,573.25 ZM 408.95 538.95 C389.05,535.98 374.09,522.95 371.42,506.24 L 370.75 502.07 L 375.63 502.63 C378.31,502.95 386.37,502.48 393.54,501.60 C407.85,499.84 424.00,499.48 424.00,500.91 C424.00,502.33 418.14,506.91 414.26,508.54 C412.33,509.34 407.92,510.00 404.44,510.00 C397.06,510.00 393.54,511.14 389.75,514.75 C386.39,517.96 386.05,522.42 389.05,524.03 C390.76,524.94 391.64,524.64 394.41,522.21 C397.32,519.65 398.71,519.24 405.96,518.74 C416.49,518.02 425.38,513.96 429.90,507.82 C431.57,505.55 433.10,503.20 433.30,502.60 C433.77,501.18 447.31,505.45 449.59,507.73 C451.83,509.97 450.82,516.72 447.27,523.25 C441.05,534.67 424.83,541.32 408.95,538.95 ZM 496.21 520.44 C487.23,517.79 485.06,516.78 465.54,506.12 C440.95,492.69 427.65,489.70 403.19,492.12 C395.66,492.86 385.00,493.46 379.50,493.44 C370.69,493.42 368.76,493.08 363.28,490.58 C351.08,485.03 342.93,472.80 343.05,460.21 C343.11,454.25 345.81,445.50 347.59,445.50 C348.16,445.50 350.78,447.39 353.40,449.71 C358.17,453.90 358.18,453.92 356.97,457.60 C353.88,466.95 358.32,478.14 366.91,482.67 C375.63,487.28 386.13,485.05 393.33,477.06 L 397.17 472.81 L 399.33 474.79 C405.08,480.05 418.20,483.74 421.48,481.01 C423.30,479.51 423.47,475.87 421.80,474.20 C421.14,473.54 419.33,473.00 417.77,473.00 C411.46,473.00 404.80,468.70 400.37,461.75 C396.77,456.11 391.00,456.91 391.00,463.05 C391.00,468.49 382.64,477.00 377.30,477.00 C374.01,477.00 369.60,474.57 367.09,471.39 C364.84,468.53 364.15,460.64 366.04,459.48 C366.61,459.12 369.28,459.40 371.98,460.09 C377.56,461.52 380.33,460.30 379.80,456.62 C379.49,454.49 378.29,453.72 368.88,449.66 C361.72,446.56 355.57,441.01 352.18,434.56 C349.87,430.17 349.52,428.30 349.51,420.50 C349.50,412.39 349.79,410.97 352.46,406.16 C355.41,400.83 365.08,391.00 367.37,391.00 C368.04,391.00 369.11,392.97 369.76,395.37 C370.40,397.78 372.48,401.79 374.38,404.28 L 377.84 408.80 L 373.62 409.87 C364.38,412.19 355.44,422.29 357.88,427.65 C359.65,431.51 363.49,430.76 366.52,425.96 C370.20,420.14 374.24,418.01 381.61,418.00 L 387.72 418.00 L 388.29 423.51 C388.64,426.88 390.05,431.21 391.93,434.68 C395.67,441.60 395.72,442.22 392.37,440.95 C387.36,439.05 384.16,435.98 382.75,431.74 C381.45,427.86 381.05,427.50 377.92,427.50 C374.81,427.50 374.47,427.79 374.19,430.68 C373.84,434.28 376.66,440.43 380.15,443.69 C384.38,447.63 391.00,449.95 398.07,449.98 C403.50,450.00 405.64,450.54 410.38,453.11 C418.79,457.66 424.99,458.97 438.12,458.99 C448.34,459.00 450.05,459.25 452.37,461.07 C454.49,462.75 455.00,463.99 455.00,467.52 C455.00,470.90 455.50,472.24 457.22,473.44 C460.36,475.64 460.92,475.44 462.55,471.53 C465.68,464.04 463.17,456.77 456.00,452.55 C453.03,450.81 450.22,450.42 437.50,449.97 C424.05,449.49 421.91,449.16 416.82,446.81 C398.39,438.27 390.63,417.14 400.56,402.51 C403.35,398.39 403.43,395.29 400.79,393.63 C398.41,392.14 394.25,395.38 391.25,401.08 C389.96,403.51 388.55,405.63 388.11,405.78 C386.13,406.48 379.04,396.93 377.43,391.40 C369.87,365.39 398.34,338.78 428.33,343.83 C439.21,345.65 447.22,350.02 456.01,358.90 C470.60,373.66 477.39,391.91 477.15,415.73 L 477.03 426.97 L 479.67 427.63 C483.38,428.56 484.71,426.29 485.51,417.66 C486.66,405.33 483.42,388.12 477.54,375.38 C469.30,357.53 455.82,343.73 441.50,338.50 C438.75,337.49 436.10,336.32 435.61,335.90 C434.18,334.65 443.54,329.35 450.49,327.47 C458.07,325.41 469.40,325.82 475.37,328.35 L 479.24 330.00 L 475.87 333.91 C474.02,336.07 472.14,337.87 471.70,337.92 C471.26,337.96 469.24,336.88 467.21,335.50 C463.21,332.78 460.07,332.33 458.20,334.20 C456.21,336.19 456.84,338.86 459.75,340.67 C466.14,344.68 475.15,352.61 479.80,358.35 C486.56,366.69 494.31,381.24 496.44,389.61 C500.35,404.94 499.36,423.32 493.96,435.88 L 491.75 441.00 L 486.85 441.00 C482.60,441.00 481.24,440.44 476.72,436.85 C470.38,431.82 461.41,427.43 454.50,426.00 L 449.37 424.94 L 447.12 417.72 C441.58,400.00 429.65,386.89 412.75,379.98 C407.15,377.69 407.00,377.53 407.00,373.78 C407.00,365.90 413.98,360.66 424.50,360.66 C434.00,360.65 440.72,365.53 443.03,374.12 C444.48,379.51 443.97,381.43 440.99,381.85 C437.57,382.32 436.00,383.81 436.00,386.59 C436.00,389.44 438.65,391.00 443.48,391.00 C445.47,391.00 448.40,391.67 450.00,392.50 C455.79,395.50 460.79,405.15 459.52,410.91 C459.01,413.22 459.35,414.13 461.16,415.40 C463.99,417.38 464.47,417.39 466.43,415.43 C468.64,413.22 468.46,403.61 466.11,398.43 C463.84,393.44 458.63,387.38 454.99,385.49 C452.53,384.22 452.23,383.45 451.79,377.30 C451.20,369.10 448.68,363.75 442.96,358.58 C437.14,353.33 433.36,352.00 424.28,352.02 C409.27,352.06 398.09,361.10 398.02,373.25 L 398.00 377.00 L 392.04 377.00 C387.09,377.00 385.89,377.34 385.00,379.00 C383.61,381.59 385.24,384.80 388.28,385.45 C389.50,385.71 394.10,386.06 398.50,386.23 C409.33,386.64 417.76,390.56 426.40,399.23 C432.64,405.49 438.34,415.15 439.59,421.60 L 440.19 424.69 L 432.49 425.34 C425.80,425.91 424.44,425.74 422.03,424.02 C420.51,422.94 418.68,420.64 417.96,418.91 C416.85,416.22 416.92,415.02 418.46,410.49 C420.52,404.43 420.04,403.00 415.96,403.00 C412.02,403.00 409.72,406.72 409.20,413.95 C408.57,422.61 412.56,429.27 420.90,433.49 C423.93,435.02 425.32,435.08 433.47,434.06 C448.70,432.14 461.97,435.46 470.76,443.40 C475.20,447.41 478.14,454.22 480.10,465.00 C480.75,468.58 481.68,472.00 482.16,472.62 C482.64,473.24 487.43,473.95 493.04,474.22 C502.79,474.69 503.36,474.85 514.53,480.36 C525.88,485.97 526.05,486.02 530.75,484.87 C533.36,484.23 536.26,483.33 537.18,482.86 C539.51,481.67 540.33,478.49 538.97,475.94 C538.09,474.30 537.20,473.93 535.16,474.36 C526.17,476.27 526.31,476.29 517.32,472.21 C505.95,467.05 502.42,465.98 494.23,465.17 L 487.50 464.50 L 486.92 458.43 C486.60,455.09 486.01,451.82 485.61,451.18 C484.50,449.39 502.49,449.67 511.78,451.59 C528.59,455.06 543.26,465.53 548.98,478.15 C553.16,487.35 550.60,500.63 542.98,509.28 C531.74,522.06 515.10,526.03 496.21,520.44 ZM 514.53 512.55 C517.43,511.34 518.00,510.59 518.00,508.02 C518.00,504.11 516.17,503.39 509.95,504.82 C504.14,506.16 497.82,504.62 492.52,500.58 C488.78,497.73 487.00,497.40 485.20,499.20 C477.76,506.64 502.12,517.74 514.53,512.55 ZM 530.53 508.35 C532.74,507.50 536.98,498.38 536.99,494.45 C537.00,490.67 535.42,489.00 531.85,489.00 C529.43,489.00 529.02,489.46 528.51,492.75 C528.19,494.81 527.05,498.16 525.97,500.20 C523.69,504.47 523.53,506.13 525.20,507.80 C526.55,509.15 528.04,509.30 530.53,508.35 ZM 481.96 489.54 C486.65,487.86 487.96,486.61 487.98,483.79 C488.01,480.60 484.41,479.70 478.90,481.53 C464.92,486.18 442.33,480.29 435.08,470.12 C431.23,464.70 424.60,467.20 426.89,473.20 C429.29,479.53 443.57,488.64 454.63,490.91 C461.24,492.27 476.50,491.50 481.96,489.54 ZM 571.50 487.45 C561.95,484.83 559.22,483.10 557.66,478.62 C556.86,476.35 555.90,473.73 555.51,472.79 C554.17,469.49 559.15,469.56 564.58,472.90 C569.74,476.08 579.27,479.00 584.49,479.00 C586.18,479.00 589.92,478.39 592.81,477.64 L 598.05 476.28 L 601.70 479.62 L 605.35 482.96 L 600.92 484.92 C596.13,487.04 585.64,489.03 580.00,488.90 C578.08,488.86 574.25,488.20 571.50,487.45 ZM 575.00 468.54 C572.66,467.66 572.00,467.05 573.00,466.68 C575.55,465.76 586.46,462.59 587.27,462.55 C588.40,462.48 591.97,468.24 591.38,469.19 C590.60,470.46 578.89,469.99 575.00,468.54 ZM 547.48 460.98 L 543.88 457.30 L 548.97 455.11 C551.77,453.91 558.88,451.85 564.78,450.53 C577.37,447.73 581.81,446.00 588.25,441.40 C590.87,439.53 593.16,438.00 593.35,438.00 C593.54,438.00 594.51,439.80 595.50,442.00 C597.20,445.78 597.21,446.11 595.60,447.89 C592.48,451.34 581.64,455.81 571.00,458.04 C565.22,459.24 558.38,461.23 555.79,462.45 L 551.08 464.67 L 547.48 460.98 ZM 612.34 451.70 C602.17,440.83 594.67,423.87 594.56,411.50 C594.51,405.63 594.94,403.76 597.19,399.92 C601.18,393.14 602.63,392.19 605.16,394.71 C607.16,396.72 607.17,396.81 605.35,399.59 C603.95,401.73 603.51,404.23 603.55,409.96 C603.64,422.53 609.44,434.74 620.20,445.00 L 625.26 449.83 L 623.18 452.75 C619.01,458.60 618.77,458.58 612.34,451.70 ZM 531.25 449.71 C526.47,447.13 526.00,446.56 526.00,443.40 C526.00,436.81 530.11,431.08 537.90,426.80 C540.05,425.62 541.00,424.35 541.00,422.67 C541.00,416.01 533.50,417.37 525.37,425.50 C520.41,430.46 519.28,432.72 517.50,441.34 C517.10,443.28 516.46,444.01 515.47,443.63 C514.68,443.32 511.66,442.79 508.76,442.46 C500.65,441.50 500.88,441.90 503.81,433.81 C506.27,427.03 506.46,425.32 506.48,410.00 C506.50,393.88 506.42,393.28 503.19,384.00 C501.38,378.77 498.12,371.27 495.96,367.33 C492.19,360.45 492.09,360.02 493.44,356.83 C494.68,353.91 494.93,353.74 495.49,355.50 C498.03,363.47 501.74,367.13 509.27,369.15 C515.00,370.68 520.52,369.24 525.46,364.90 C529.64,361.23 531.38,356.32 530.77,349.94 C530.14,343.41 527.80,340.00 523.95,340.00 C520.04,340.00 519.29,342.10 521.48,346.95 C526.11,357.23 514.80,365.95 506.97,358.13 C501.31,352.46 501.73,347.00 507.85,347.00 C512.26,347.00 514.31,345.22 513.83,341.81 C513.54,339.75 512.88,339.47 507.81,339.20 C499.27,338.75 492.09,342.76 487.43,350.58 C486.46,352.20 486.03,352.01 482.71,348.43 C480.70,346.27 479.04,343.94 479.03,343.25 C478.97,340.82 487.29,333.76 493.80,330.71 C501.61,327.06 513.58,325.93 522.87,327.97 C529.38,329.40 538.83,334.12 542.06,337.56 L 544.28 339.93 L 541.08 342.92 C538.41,345.42 538.06,346.24 538.95,347.90 C540.73,351.24 541.91,351.31 548.24,348.47 C553.12,346.28 555.88,345.72 561.98,345.68 C568.57,345.64 570.58,346.08 576.56,348.88 C580.38,350.66 584.77,353.33 586.31,354.81 L 589.12 357.49 L 583.38 358.64 C577.91,359.74 577.46,359.67 573.68,357.17 C565.90,352.02 551.64,353.22 543.97,359.68 C540.01,363.01 537.32,368.70 538.69,370.87 C540.65,373.99 543.19,373.36 547.47,368.69 C554.61,360.92 564.11,360.04 570.63,366.56 C572.52,368.45 574.16,369.99 574.28,369.99 C574.40,369.98 576.97,369.31 580.00,368.50 C596.90,363.96 609.48,369.55 621.44,386.91 L 626.38 394.08 L 623.32 397.14 L 620.25 400.21 L 618.38 397.51 C608.41,383.15 598.59,376.00 588.85,376.00 C581.43,376.00 577.58,378.47 578.61,382.57 C578.92,383.80 578.47,385.20 577.50,386.00 C576.61,386.74 574.45,390.31 572.70,393.92 C569.70,400.15 569.53,401.12 569.55,412.00 C569.56,422.36 569.84,424.14 572.36,430.00 C573.90,433.58 575.38,437.02 575.65,437.65 C576.25,439.07 572.33,440.39 560.00,442.91 C548.73,445.22 546.02,446.18 540.59,449.80 L 536.50 452.54 L 531.25 449.71 ZM 553.39 437.98 C557.42,431.89 559.39,423.05 558.07,416.91 C555.34,404.17 546.61,395.86 542.63,402.21 C541.79,403.55 542.05,404.54 543.81,406.71 C550.71,415.24 551.82,425.33 546.67,432.75 C543.58,437.22 543.42,438.28 545.57,440.43 C548.14,443.00 550.57,442.24 553.39,437.98 ZM 526.96 414.07 C527.53,413.00 528.00,409.58 528.00,406.47 C528.00,396.71 534.48,391.00 545.56,391.00 C550.67,391.00 551.50,391.32 554.35,394.36 C556.08,396.21 558.23,398.78 559.11,400.08 C560.55,402.19 561.01,402.32 563.36,401.24 C566.45,399.84 566.70,397.54 564.30,392.51 C562.70,389.15 562.70,388.77 564.30,386.07 C566.43,382.46 566.50,378.13 564.44,377.34 C562.15,376.46 558.14,378.60 556.88,381.37 C555.87,383.58 555.48,383.70 552.14,382.77 C546.21,381.14 537.79,382.42 531.29,385.95 C526.08,388.78 525.40,388.93 524.50,387.44 C520.64,381.05 516.74,379.20 514.01,382.48 C513.02,383.68 513.18,384.64 514.85,387.47 C517.99,392.78 520.00,400.67 520.00,407.63 C520.00,412.55 520.38,414.12 521.75,414.92 C524.37,416.45 525.82,416.21 526.96,414.07 ZM 624.59 438.10 C623.12,436.47 623.06,435.88 624.17,434.10 C625.85,431.41 626.62,431.45 627.37,434.25 C628.87,439.83 627.66,441.49 624.59,438.10 ZM 580.89 429.25 C574.47,414.30 576.71,397.49 586.37,388.13 C589.68,384.92 589.97,384.83 593.50,386.00 L 597.18 387.22 L 594.15 390.36 C592.48,392.09 589.90,396.15 588.42,399.39 C586.02,404.63 585.80,406.05 586.34,412.39 C586.67,416.30 587.67,421.94 588.56,424.93 C590.17,430.32 590.17,430.36 587.84,432.15 C584.27,434.90 583.11,434.42 580.89,429.25 ZM 611.00 406.06 C611.00,404.93 611.45,404.00 612.00,404.00 C612.55,404.00 613.00,404.65 613.00,405.44 C613.00,406.23 612.55,407.16 612.00,407.50 C611.45,407.84 611.00,407.19 611.00,406.06 Z" fill="rgb(249,252,252)"/>
</g>
</svg>