<svg xmlns="http://www.w3.org/2000/svg" width="1024" height="1024" viewBox="0 0 1024 1024" version="1.1"><path d="M 0 512.001 L 0 1024.002 512.250 1023.751 L 1024.500 1023.500 1024.751 511.750 L 1025.002 0 512.501 0 L 0 0 0 512.001 M 0.496 512.500 C 0.496 794.100, 0.610 909.151, 0.750 768.168 C 0.890 627.186, 0.890 396.786, 0.750 256.168 C 0.610 115.551, 0.496 230.900, 0.496 512.500 M 452 318.080 C 444.748 319.342, 433.605 324.743, 428 329.712 C 424.061 333.204, 422.690 333.787, 417 334.392 C 391.651 337.084, 372.304 353.217, 367.854 375.371 C 366.806 380.592, 366.462 381.048, 361.039 384.395 C 348.418 392.185, 341.103 404.151, 340.317 418.290 C 340.023 423.597, 340.341 428.084, 341.219 430.980 C 342.540 435.341, 342.491 435.602, 339.378 440.773 C 330.270 455.897, 332.959 475.617, 346.009 489.416 C 348.818 492.386, 353.509 496.069, 356.435 497.601 L 361.755 500.386 362.371 506.443 C 363.208 514.686, 368.437 525.046, 375.316 532.091 C 385.578 542.602, 396.660 547.154, 412.500 547.366 C 418 547.440, 424.600 547.141, 427.167 546.701 L 431.834 545.902 430.377 550.701 C 428.228 557.784, 427.405 570.578, 428.976 572.472 C 430.691 574.537, 434.721 574.407, 435.827 572.250 C 436.321 571.288, 436.985 567.572, 437.302 563.992 C 437.620 560.413, 439.078 553.690, 440.543 549.052 C 442.863 541.709, 443.833 540.056, 448.053 536.262 C 453.449 531.411, 457.786 523.526, 458.819 516.689 L 459.500 512.180 468.250 517.300 C 473.063 520.116, 477 522.669, 477 522.973 C 477 523.277, 473.552 526.220, 469.338 529.513 C 456.404 539.618, 449.341 550.511, 446.914 564.094 C 445.791 570.379, 445.842 571.168, 447.496 572.995 C 451.233 577.125, 454.046 574.462, 455.896 565.041 C 458.250 553.057, 464.131 544.947, 478.018 534.535 L 487.966 527.077 491.933 528.476 C 499.681 531.210, 511.441 532.324, 519.772 531.114 C 539.104 528.306, 556.058 513.130, 558.569 496.387 C 559.117 492.732, 559.553 492.011, 560.873 492.575 C 568.825 495.969, 571.148 496.403, 581.500 496.430 C 593.881 496.462, 601.440 494.698, 609.163 489.977 L 613.826 487.126 619.163 489.313 C 624.216 491.383, 626.045 491.503, 653.500 491.563 C 680.823 491.622, 682.866 491.754, 688.829 493.850 C 697.281 496.821, 701.803 499.809, 707.223 506.005 C 710.691 509.969, 712.298 511.094, 714.122 510.836 C 715.862 510.590, 716.584 509.769, 716.814 507.776 C 717.057 505.668, 716.037 503.885, 712.314 499.903 C 705.751 492.884, 700.643 489.563, 691.366 486.282 L 683.500 483.500 658.500 483.734 C 631.509 483.986, 624.553 483.266, 616.308 479.366 C 609.948 476.357, 601.594 468.998, 597.860 463.114 L 595.076 458.729 598.773 456.048 L 602.470 453.367 605.344 457.706 C 606.925 460.092, 610.212 463.678, 612.648 465.675 L 617.078 469.305 620.424 465.903 C 622.264 464.031, 625.144 461.476, 626.824 460.225 C 628.504 458.973, 631.137 455.376, 632.676 452.230 C 634.998 447.483, 635.468 445.236, 635.442 439.006 C 635.420 433.820, 634.842 430.330, 633.574 427.714 C 632.564 425.632, 631.912 423.832, 632.124 423.714 C 632.336 423.596, 633.961 422.187, 635.736 420.582 L 638.961 417.663 641.552 423.523 C 645.520 432.494, 646.492 438.820, 645.039 446.205 C 643.528 453.887, 641.417 458.126, 636.095 464.162 C 633.835 466.726, 631.727 470.117, 631.410 471.698 C 630.716 475.169, 628.242 474.876, 658.753 474.937 C 693.587 475.007, 703.854 477.868, 717.284 491.243 C 724.145 498.076, 726.731 499.234, 729.007 496.491 C 731.831 493.089, 718.495 479.784, 706.500 474.037 C 694.381 468.230, 689.638 467.486, 665.750 467.643 C 653.788 467.722, 644 467.629, 644 467.437 C 644 467.246, 645.136 465.415, 646.525 463.369 C 647.913 461.322, 649.960 456.649, 651.074 452.982 L 653.099 446.316 659.799 445.284 L 666.500 444.252 679.500 451.041 C 692.669 457.919, 700.961 461, 706.304 461 C 708.868 461, 709.077 460.798, 707.937 459.424 C 706.859 458.125, 706.860 457.705, 707.942 457.036 C 709.908 455.821, 708.450 454.307, 704.624 453.589 C 698.243 452.392, 680.460 444.095, 676 440.233 C 675.725 439.995, 677.226 438.301, 679.337 436.469 C 683.318 433.012, 683.804 430.536, 680.864 428.684 C 679.595 427.885, 677.942 428.507, 673.492 431.462 C 667.567 435.395, 660.624 438, 656.070 438 C 653.677 438, 653.364 437.507, 652.341 432.125 C 651.727 428.895, 650.002 423.527, 648.508 420.198 C 647.014 416.869, 646.068 413.699, 646.405 413.154 C 648.269 410.137, 663.427 410.017, 668.954 412.975 C 670.102 413.590, 671.482 413.820, 672.021 413.487 C 672.559 413.154, 673.007 413.471, 673.015 414.191 C 673.025 415.022, 673.299 415.122, 673.765 414.465 C 675.106 412.578, 678.482 413.371, 678.807 415.650 C 679.029 417.212, 681.082 418.750, 686.307 421.269 C 696.091 425.987, 696.278 426.019, 697.733 423.213 C 699.518 419.772, 699.435 419.581, 695.250 417.550 C 685.786 412.957, 681.029 411.118, 681.255 412.140 C 681.728 414.281, 679.123 414.099, 677.951 411.909 C 676.897 409.939, 676.972 409.775, 678.634 410.408 C 680.096 410.965, 680.239 410.855, 679.292 409.902 C 678.344 408.946, 677.749 408.964, 676.518 409.985 C 675.657 410.700, 674.638 410.971, 674.255 410.588 C 673.872 410.205, 674.145 409.528, 674.863 409.085 C 675.880 408.456, 675.799 408.137, 674.494 407.636 C 673.573 407.283, 672.341 407.290, 671.755 407.651 C 671.170 408.013, 670.977 407.846, 671.326 407.281 C 672.105 406.022, 661.832 403, 656.773 403 C 651.655 403, 641.584 406.344, 637.219 409.493 C 635.174 410.969, 629.814 416.070, 625.309 420.828 L 617.117 429.480 615.081 424.990 C 613.960 422.521, 613.034 419.990, 613.022 419.367 C 613.010 418.744, 616.938 414.207, 621.750 409.285 C 633.295 397.478, 640.406 393.779, 651.723 393.694 C 656.096 393.661, 662.339 394.389, 665.987 395.358 C 670.209 396.479, 672.594 396.717, 672.820 396.040 C 673.011 395.468, 673.831 395, 674.642 395 C 675.470 395, 675.816 394.512, 675.431 393.888 C 675.053 393.277, 675.326 392.416, 676.038 391.976 C 676.887 391.452, 675.466 390.616, 671.916 389.551 C 662.935 386.855, 658.372 386.526, 655.557 388.371 C 653.444 389.755, 653.149 389.776, 653.637 388.503 C 653.954 387.676, 653.716 387, 653.107 387 C 652.498 387, 652 387.450, 652 388 C 652 388.550, 651.298 389, 650.441 389 C 649.584 389, 649.160 388.550, 649.500 388 C 650.515 386.358, 643.959 386.907, 638.001 388.963 C 633.363 390.564, 632.379 390.641, 631.715 389.456 C 631.283 388.683, 628.914 385.045, 626.451 381.372 C 623.988 377.699, 622.178 374.488, 622.430 374.236 C 623.440 373.227, 635.875 372.917, 641.679 373.756 C 647.186 374.552, 647.909 374.457, 648.320 372.883 C 648.575 371.911, 648.494 370.827, 648.141 370.475 C 647.789 370.122, 647.500 369.313, 647.500 368.676 C 647.500 366.164, 632.152 365.218, 621.615 367.081 C 615.650 368.136, 615.350 368.081, 609.375 364.831 C 605.471 362.708, 601.790 359.652, 599.223 356.404 C 597.009 353.601, 593.539 349.941, 591.513 348.271 C 583.089 341.328, 568.145 336.270, 558.836 337.212 C 554.795 337.621, 554.133 337.319, 549.105 332.767 C 533.348 318.501, 509.534 314.234, 491.425 322.432 C 487.089 324.394, 486.085 324.535, 484.529 323.397 C 478.587 319.053, 461.992 316.340, 452 318.080 M 448.314 327.857 C 439.262 330.985, 432.040 337, 437.337 337 C 438.008 337, 441.877 338.591, 445.936 340.537 C 455.463 345.102, 466.774 356.220, 473.370 367.500 C 481.855 382.011, 486.837 403.253, 485.324 418.468 C 484.582 425.929, 483.570 428, 480.665 428 C 476.770 428, 476.225 426.454, 476.768 416.936 C 477.377 406.253, 475.777 395.340, 472.061 384.840 C 468.356 374.371, 463.705 366.913, 456 359.091 C 435.963 338.750, 407.439 337.650, 388.431 356.486 C 374.094 370.693, 371.955 389.402, 383.265 401.671 C 385.459 404.052, 387.535 405.999, 387.877 405.998 C 388.220 405.996, 389.759 403.586, 391.297 400.641 C 394.424 394.657, 398.107 391.951, 400.815 393.648 C 403.423 395.283, 403.374 398.636, 400.691 402.229 C 397.066 407.081, 395.672 412.451, 396.285 419.202 C 397.347 430.921, 405.101 441.350, 416.825 446.833 C 422.096 449.298, 423.496 449.490, 436.500 449.535 C 447.954 449.574, 451.184 449.915, 454.262 451.411 C 462.379 455.356, 465.543 462.671, 462.537 470.543 C 461.601 472.994, 460.267 475, 459.572 475 C 457.135 475, 455 471.379, 455 467.244 C 455 464.007, 454.446 462.709, 452.365 461.073 C 450.042 459.245, 448.352 459, 438.075 459 C 424.783 459, 417.157 457.399, 409.265 452.951 C 404.947 450.517, 402.884 450, 397.483 450 C 389.844 450, 384.832 448.176, 380.165 443.699 C 376.292 439.984, 374.296 436.524, 373.993 433 C 373.642 428.904, 373.903 428.122, 376 427 C 378.496 425.664, 381.998 427.289, 382.004 429.785 C 382.011 433.010, 385.773 437.679, 390.084 439.811 C 392.453 440.983, 394.557 441.776, 394.761 441.572 C 394.965 441.369, 393.738 438.734, 392.036 435.718 C 390.334 432.702, 388.456 427.482, 387.864 424.117 L 386.786 418 381.143 418.004 C 374.252 418.008, 370.116 420.271, 366.484 426.025 C 364.386 429.349, 363.406 430.064, 361.300 429.811 C 355.129 429.072, 355.865 422.711, 362.907 415.911 C 365.930 412.992, 369.329 410.828, 372.245 409.967 L 376.830 408.614 374.070 404.557 C 372.551 402.326, 370.503 398.363, 369.519 395.750 C 368.534 393.137, 367.376 391, 366.945 391 C 365.007 391, 355.130 401.336, 352.458 406.161 C 349.792 410.972, 349.501 412.390, 349.509 420.500 C 349.517 428.302, 349.873 430.174, 352.182 434.563 C 355.570 441.007, 361.717 446.563, 368.880 449.658 C 378.731 453.913, 379.500 454.440, 379.500 456.929 C 379.500 460.583, 376.881 461.650, 371.471 460.203 C 368.934 459.525, 366.440 459.228, 365.929 459.544 C 364.362 460.512, 364.894 468.402, 366.704 471.027 C 369.435 474.989, 371.215 475.935, 376 475.964 C 383.893 476.014, 389.663 470.935, 390.727 463 C 391.416 457.862, 394.022 456.129, 397.567 458.452 C 398.905 459.329, 400 460.470, 400 460.988 C 400 461.506, 401.459 463.592, 403.241 465.622 C 406.910 469.800, 413.028 472.945, 417.550 472.978 C 421.121 473.004, 423 474.563, 423 477.500 C 423 480.553, 421.084 482.001, 417.050 481.994 C 411.697 481.986, 406.632 480.289, 401.302 476.717 L 396.500 473.500 393.069 477.322 C 391.182 479.424, 387.937 482.012, 385.859 483.072 C 381.326 485.384, 372.730 485.626, 367.872 483.578 C 363.796 481.860, 358.513 476.537, 357.061 472.685 C 355.753 469.215, 355.676 459.983, 356.927 456.693 C 357.754 454.517, 357.268 453.750, 352.407 449.553 L 346.960 444.851 345.237 448.675 C 342.437 454.888, 342.860 467.150, 346.109 474 C 351.049 484.412, 360.075 491.002, 372.034 492.928 C 376.722 493.683, 382.204 493.540, 393.895 492.357 C 428.607 488.844, 438.668 491.204, 475.500 511.499 C 492.095 520.642, 506.325 524.129, 518.810 522.112 C 541.086 518.512, 555.621 498.497, 549.472 479.888 C 548.088 475.698, 546.114 472.924, 540.596 467.412 C 528.762 455.593, 515.660 450.594, 494.500 449.826 C 485.978 449.517, 485.516 449.606, 485.795 451.500 C 485.958 452.600, 486.408 455.975, 486.795 459 L 487.500 464.500 494 465.073 C 501.693 465.750, 509.011 468.036, 518.225 472.640 C 525.613 476.331, 529.406 476.805, 532.760 474.455 C 535.323 472.660, 538.483 473.794, 539.455 476.858 C 540.737 480.898, 538.098 483.162, 530 484.968 C 525.715 485.923, 525.023 485.736, 515.500 481.035 C 503.281 475.004, 499.660 474.013, 489.809 474.006 C 485.579 474.003, 481.865 473.590, 481.555 473.089 C 481.245 472.588, 480.289 468.425, 479.431 463.839 C 476.527 448.331, 472.744 442.957, 460.958 437.598 C 452.445 433.727, 443.595 432.567, 433.509 433.999 C 421.557 435.695, 415.168 433.072, 410.780 424.666 C 406.160 415.818, 409.365 402, 416.036 402 C 419.426 402, 420.284 405.432, 418.295 411.033 C 416.557 415.925, 416.562 416.146, 418.506 419.765 C 421.322 425.007, 424.057 426.048, 432.330 425.021 C 436.086 424.555, 439.364 423.969, 439.615 423.719 C 440.579 422.754, 435.595 411.536, 431.592 405.660 C 423.241 393.404, 409.233 385.856, 394.332 385.584 C 385.886 385.430, 383.312 383.877, 384.389 379.585 C 385.004 377.138, 385.383 377, 391.519 377 L 398 377 398 372.960 C 398 361.427, 409.982 351.568, 424 351.568 C 439.662 351.568, 452 363.613, 452 378.905 C 452 383.415, 452.259 383.906, 455.919 386.328 C 458.075 387.754, 460.991 390.432, 462.399 392.279 C 470.318 402.661, 469.666 419.903, 461.496 416.180 C 459.300 415.180, 459 414.417, 459 409.837 C 459 399.692, 451.662 391, 443.096 391 C 441.321 391, 439.051 390.563, 438.052 390.028 C 433.774 387.739, 434.941 382.611, 439.992 381.502 C 442.674 380.913, 442.998 380.443, 442.984 377.171 C 442.943 368.096, 434.292 360.532, 424 360.573 C 414.451 360.610, 407.589 365.599, 406.318 373.427 L 405.759 376.872 415.130 381.274 C 430.712 388.594, 440.899 400.033, 446.622 416.639 L 449.427 424.777 454.463 425.907 C 461.652 427.520, 469.617 431.430, 476.166 436.561 C 481.154 440.469, 482.431 441, 486.844 441 L 491.856 441 494.031 435.250 C 506.279 402.872, 493.612 365.030, 463.250 343.298 C 456.646 338.571, 455.712 336.476, 458.917 333.575 C 461.046 331.648, 462.688 332.154, 468.601 336.563 L 471.703 338.875 474.851 334.408 C 476.583 331.952, 478 329.747, 478 329.510 C 478 329.272, 475.668 328.385, 472.818 327.539 C 465.885 325.480, 454.776 325.624, 448.314 327.857 M 504.527 327.114 C 497.437 328.146, 490.013 331.585, 484.278 336.494 C 478.528 341.415, 478.205 343.128, 482.106 347.982 C 483.882 350.192, 485.612 352, 485.952 352 C 486.291 352, 487.382 350.623, 488.377 348.939 C 493.999 339.422, 514 334.281, 514 342.353 C 514 345.533, 512.313 346.783, 507.487 347.175 C 503.539 347.497, 503.501 347.539, 503.632 351.450 C 503.902 359.551, 514 364.091, 519.505 358.586 C 523.088 355.003, 523.562 351.690, 521.151 347.065 C 519.172 343.268, 519.160 343.024, 520.857 340.928 C 523.306 337.904, 526.512 339.124, 529.017 344.033 C 534.315 354.418, 527.655 367.531, 516.089 369.485 C 507.739 370.896, 497.776 365.132, 496.365 358.073 C 495.521 353.854, 494.464 353.467, 493.057 356.861 C 491.994 359.429, 492.355 360.632, 496.884 369.599 C 504.763 385.197, 506.496 392.595, 506.462 410.500 C 506.437 423.984, 506.170 426.284, 503.821 433.257 L 501.208 441.014 503.354 441.449 C 504.534 441.689, 507.300 442.160, 509.500 442.496 C 511.700 442.832, 514.228 443.319, 515.118 443.579 C 516.360 443.941, 516.889 443.093, 517.395 439.934 C 518.685 431.865, 525.066 423.455, 532.889 419.513 C 537.191 417.345, 541 418.693, 541 422.384 C 541 424.199, 539.876 425.469, 536.534 427.427 C 531.046 430.644, 527.553 435.113, 526.016 440.888 C 524.683 445.897, 524.951 446.335, 531.567 449.944 L 535.635 452.163 542.067 448.652 C 546.611 446.171, 552.038 444.399, 560.549 442.616 C 574.657 439.660, 576.284 439.121, 575.614 437.621 C 569.556 424.065, 569.500 423.831, 569.500 412 C 569.500 402.108, 569.822 399.801, 571.804 395.500 C 573.071 392.750, 575.321 389.231, 576.804 387.681 C 578.561 385.843, 579.500 383.768, 579.500 381.721 C 579.500 377.491, 582.792 375.749, 589.622 376.366 C 598.868 377.202, 609.339 384.620, 616.063 395.098 C 617.793 397.794, 619.527 400, 619.917 400 C 620.307 400, 621.916 398.653, 623.494 397.006 L 626.362 394.013 621.569 386.999 C 610.814 371.258, 598.239 364.287, 585.500 367.004 C 574.329 369.388, 572.287 369.405, 571.069 367.129 C 568.687 362.678, 560.680 360.714, 554.315 363.020 C 552.767 363.580, 549.663 366.110, 547.419 368.640 C 544.221 372.245, 542.887 373.099, 541.261 372.583 C 534.399 370.405, 541.269 359.166, 551.748 355.427 C 559.334 352.720, 570.255 354.206, 575.118 358.607 C 576.568 359.919, 577.682 359.966, 582.905 358.939 C 586.257 358.279, 589 357.386, 589 356.953 C 589 355.330, 576.535 347.921, 571.194 346.368 C 563.838 344.229, 554.847 344.969, 547.865 348.288 C 541.810 351.165, 539 350.573, 539 346.418 C 539 344.675, 539.916 343.386, 541.994 342.203 C 543.640 341.267, 544.990 340.216, 544.994 339.869 C 545.004 338.815, 538.803 334.437, 533.483 331.743 C 524.592 327.241, 514.615 325.646, 504.527 327.114 M 557.062 380.400 C 555.131 383.524, 554.617 383.805, 552.381 382.955 C 546.282 380.636, 535.274 382.533, 529.030 386.979 C 525.394 389.568, 525.340 389.558, 523.505 386.009 C 520.705 380.596, 515.119 378.642, 513.618 382.552 C 513.323 383.321, 514.461 386.897, 516.146 390.497 C 518.784 396.135, 519.202 398.151, 519.157 405.003 C 519.104 413.086, 520.255 416, 523.500 416 C 526.587 416, 528 412.945, 528 406.274 C 528 399.909, 528.131 399.565, 531.945 395.938 C 540.107 388.173, 553.365 389.224, 556.968 397.923 C 557.955 400.306, 558.864 401, 560.999 401 C 565.352 401, 566.671 398.630, 564.662 394.418 C 562.582 390.055, 562.542 386.625, 564.551 384.958 C 565.495 384.174, 565.984 382.463, 565.801 380.585 C 565.543 377.937, 565.056 377.457, 562.365 377.195 C 559.711 376.937, 558.899 377.428, 557.062 380.400 M 584.856 389.815 C 575.842 399.841, 574.484 414.631, 581.153 430.135 C 583.335 435.205, 583.651 435.271, 588.308 431.614 C 590.047 430.249, 590.032 429.916, 587.931 422.999 C 584.992 413.321, 585.551 404.432, 589.565 397.059 C 591.134 394.176, 593.526 390.945, 594.880 389.880 C 597.709 387.655, 596.977 386.345, 592.393 385.429 C 589.681 384.886, 588.855 385.367, 584.856 389.815 M 599.653 396.093 C 597.628 398.458, 595.476 402.218, 594.872 404.447 C 592.473 413.289, 596.080 427.789, 603.964 441 C 608.211 448.117, 617.729 459.286, 618.919 458.550 C 619.331 458.296, 620.934 456.260, 622.481 454.027 L 625.295 449.966 618.663 443.096 C 610.881 435.035, 605.771 425.297, 603.936 415.030 C 602.716 408.201, 603.038 405.915, 606.339 398 C 606.683 397.175, 606.148 395.441, 605.149 394.146 L 603.334 391.792 599.653 396.093 M 542.667 400.667 C 541.227 402.107, 542.138 405.289, 545.016 408.870 C 550.818 416.090, 551.412 423.113, 546.939 431.616 C 544.442 436.363, 544.069 437.856, 544.917 439.718 C 547.137 444.589, 551.720 441.944, 555.638 433.531 C 560.178 423.781, 558.221 410.040, 551.254 402.750 C 548.778 400.159, 544.268 399.065, 542.667 400.667 M 610.705 405.750 C 610.414 407.262, 610.399 408.724, 610.670 408.998 C 611.549 409.886, 613.880 405.850, 613.324 404.403 C 612.464 402.162, 611.277 402.773, 610.705 405.750 M 623.963 433.548 L 621.500 436.177 624.500 438.586 L 627.500 440.996 627.797 438.213 C 627.961 436.682, 627.719 434.415, 627.260 433.174 L 626.426 430.918 623.963 433.548 M 591.002 439.497 C 588.383 442.653, 575.796 447.851, 564.364 450.498 C 557.839 452.009, 550.577 454.216, 548.226 455.403 L 543.951 457.560 547.361 460.865 C 550.764 464.164, 550.777 464.167, 554.022 462.489 C 555.810 461.564, 562.468 459.730, 568.817 458.413 C 580.256 456.041, 590.208 452.177, 594.969 448.259 L 597.437 446.227 595.469 442.531 C 593.042 437.975, 592.546 437.638, 591.002 439.497 M 585.695 462.638 C 585.344 462.990, 581.792 464.044, 577.801 464.982 C 570.905 466.602, 570.667 466.751, 572.985 467.992 C 575.668 469.428, 587.971 470.609, 590.427 469.666 C 591.773 469.150, 591.703 468.611, 589.889 465.536 C 587.819 462.028, 586.924 461.410, 585.695 462.638 M 426.418 469.469 C 424.995 475.142, 434.743 484.340, 446.828 488.727 C 455.690 491.943, 467.267 492.673, 476.895 490.622 C 480.963 489.756, 485.125 488.292, 486.145 487.369 C 490.125 483.767, 487.306 479.307, 481.759 480.431 C 469.648 482.885, 464.326 483.291, 458.148 482.233 C 449.461 480.744, 439.768 475.839, 435.827 470.935 C 431.955 466.116, 427.437 465.412, 426.418 469.469 M 557.366 470.293 C 556.340 470.844, 555.393 471.373, 555.263 471.468 C 555.133 471.563, 556.055 474.296, 557.313 477.543 C 559.579 483.394, 559.654 483.465, 566.049 485.696 C 576.493 489.340, 594.511 488.543, 602.874 484.067 L 605.156 482.846 601.332 479.541 C 598.045 476.700, 597.158 476.378, 595.004 477.246 C 591.522 478.651, 578.355 478.597, 573.322 477.157 C 571.024 476.500, 566.914 474.461, 564.188 472.626 C 560.283 469.999, 558.836 469.504, 557.366 470.293 M 528.667 489.667 C 528.300 490.033, 528 491.579, 528 493.102 C 528 495.883, 527.103 498.420, 524.522 502.937 C 521.790 507.717, 527.475 511.382, 531.452 507.405 C 535.472 503.386, 537.944 494.633, 536.056 491.105 C 534.960 489.056, 530.203 488.130, 528.667 489.667 M 484.046 499.445 C 479.452 504.980, 492.878 514, 505.710 514 C 508.655 514, 512.625 513.348, 514.532 512.551 C 517.370 511.365, 518 510.570, 518 508.173 C 518 503.731, 515.807 502.414, 511.035 503.988 C 505.295 505.883, 498.572 504.788, 493.353 501.110 C 488.518 497.702, 485.884 497.230, 484.046 499.445 M 392 501.667 C 386.225 502.443, 379.091 502.907, 376.148 502.698 L 370.795 502.318 371.445 506.409 C 373.095 516.809, 380.985 527.581, 390.772 532.798 C 409.044 542.537, 432.165 540.415, 443.411 527.967 C 448.140 522.732, 450 518.360, 450 512.477 C 450 507.908, 449.978 507.880, 444.750 505.536 C 436.738 501.944, 433.306 501.460, 432.559 503.815 C 431.491 507.178, 424.829 513.189, 419.427 515.662 C 415.981 517.240, 411.429 518.261, 405.963 518.682 C 398.745 519.239, 397.288 519.686, 394.383 522.237 C 388.917 527.036, 384.123 523.530, 387.424 517.147 C 390.053 512.062, 394.803 509.948, 405.090 509.281 C 413.144 508.759, 414.788 508.318, 418.809 505.594 C 426.229 500.569, 425.642 499.983, 413.333 500.128 C 407.375 500.198, 397.775 500.891, 392 501.667" stroke="none" fill="#d7f0d6" fill-rule="evenodd"/><path d="M 452 318.080 C 444.748 319.342, 433.605 324.743, 428 329.712 C 424.061 333.204, 422.690 333.787, 417 334.392 C 391.651 337.084, 372.304 353.217, 367.854 375.371 C 366.806 380.592, 366.462 381.048, 361.039 384.395 C 348.418 392.185, 341.103 404.151, 340.317 418.290 C 340.023 423.597, 340.341 428.084, 341.219 430.980 C 342.540 435.341, 342.491 435.602, 339.378 440.773 C 330.270 455.897, 332.959 475.617, 346.009 489.416 C 348.818 492.386, 353.509 496.069, 356.435 497.601 L 361.755 500.386 362.371 506.443 C 363.208 514.686, 368.437 525.046, 375.316 532.091 C 385.578 542.602, 396.660 547.154, 412.500 547.366 C 418 547.440, 424.600 547.141, 427.167 546.701 L 431.834 545.902 430.377 550.701 C 428.228 557.784, 427.405 570.578, 428.976 572.472 C 430.691 574.537, 434.721 574.407, 435.827 572.250 C 436.321 571.288, 436.985 567.572, 437.302 563.992 C 437.620 560.413, 439.078 553.690, 440.543 549.052 C 442.863 541.709, 443.833 540.056, 448.053 536.262 C 453.449 531.411, 457.786 523.526, 458.819 516.689 L 459.500 512.180 468.250 517.300 C 473.063 520.116, 477 522.669, 477 522.973 C 477 523.277, 473.552 526.220, 469.338 529.513 C 456.404 539.618, 449.341 550.511, 446.914 564.094 C 445.791 570.379, 445.842 571.168, 447.496 572.995 C 451.233 577.125, 454.046 574.462, 455.896 565.041 C 458.250 553.057, 464.131 544.947, 478.018 534.535 L 487.966 527.077 491.933 528.476 C 499.681 531.210, 511.441 532.324, 519.772 531.114 C 539.104 528.306, 556.058 513.130, 558.569 496.387 C 559.117 492.732, 559.553 492.011, 560.873 492.575 C 568.825 495.969, 571.148 496.403, 581.500 496.430 C 593.881 496.462, 601.440 494.698, 609.163 489.977 L 613.826 487.126 619.163 489.313 C 624.216 491.383, 626.045 491.503, 653.500 491.563 C 680.823 491.622, 682.866 491.754, 688.829 493.850 C 697.281 496.821, 701.803 499.809, 707.223 506.005 C 710.691 509.969, 712.298 511.094, 714.122 510.836 C 715.862 510.590, 716.584 509.769, 716.814 507.776 C 717.057 505.668, 716.037 503.885, 712.314 499.903 C 705.751 492.884, 700.643 489.563, 691.366 486.282 L 683.500 483.500 658.500 483.734 C 631.509 483.986, 624.553 483.266, 616.308 479.366 C 609.948 476.357, 601.594 468.998, 597.860 463.114 L 595.076 458.729 598.773 456.048 L 602.470 453.367 605.344 457.706 C 606.925 460.092, 610.212 463.678, 612.648 465.675 L 617.078 469.305 620.424 465.903 C 622.264 464.031, 625.144 461.476, 626.824 460.225 C 628.504 458.973, 631.137 455.376, 632.676 452.230 C 634.998 447.483, 635.468 445.236, 635.442 439.006 C 635.420 433.820, 634.842 430.330, 633.574 427.714 C 632.564 425.632, 631.912 423.832, 632.124 423.714 C 632.336 423.596, 633.961 422.187, 635.736 420.582 L 638.961 417.663 641.552 423.523 C 645.520 432.494, 646.492 438.820, 645.039 446.205 C 643.528 453.887, 641.417 458.126, 636.095 464.162 C 633.835 466.726, 631.727 470.117, 631.410 471.698 C 630.716 475.169, 628.242 474.876, 658.753 474.937 C 693.587 475.007, 703.854 477.868, 717.284 491.243 C 724.145 498.076, 726.731 499.234, 729.007 496.491 C 731.831 493.089, 718.495 479.784, 706.500 474.037 C 694.381 468.230, 689.638 467.486, 665.750 467.643 C 653.788 467.722, 644 467.629, 644 467.437 C 644 467.246, 645.136 465.415, 646.525 463.369 C 647.913 461.322, 649.960 456.649, 651.074 452.982 L 653.099 446.316 659.799 445.284 L 666.500 444.252 679.500 451.041 C 692.669 457.919, 700.961 461, 706.304 461 C 708.868 461, 709.077 460.798, 707.937 459.424 C 706.859 458.125, 706.860 457.705, 707.942 457.036 C 709.908 455.821, 708.450 454.307, 704.624 453.589 C 698.243 452.392, 680.460 444.095, 676 440.233 C 675.725 439.995, 677.226 438.301, 679.337 436.469 C 683.318 433.012, 683.804 430.536, 680.864 428.684 C 679.595 427.885, 677.942 428.507, 673.492 431.462 C 667.567 435.395, 660.624 438, 656.070 438 C 653.677 438, 653.364 437.507, 652.341 432.125 C 651.727 428.895, 650.002 423.527, 648.508 420.198 C 647.014 416.869, 646.068 413.699, 646.405 413.154 C 648.269 410.137, 663.427 410.017, 668.954 412.975 C 670.102 413.590, 671.482 413.820, 672.021 413.487 C 672.559 413.154, 673.007 413.471, 673.015 414.191 C 673.025 415.022, 673.299 415.122, 673.765 414.465 C 675.106 412.578, 678.482 413.371, 678.807 415.650 C 679.029 417.212, 681.082 418.750, 686.307 421.269 C 696.091 425.987, 696.278 426.019, 697.733 423.213 C 699.518 419.772, 699.435 419.581, 695.250 417.550 C 685.786 412.957, 681.029 411.118, 681.255 412.140 C 681.728 414.281, 679.123 414.099, 677.951 411.909 C 676.897 409.939, 676.972 409.775, 678.634 410.408 C 680.096 410.965, 680.239 410.855, 679.292 409.902 C 678.344 408.946, 677.749 408.964, 676.518 409.985 C 675.657 410.700, 674.638 410.971, 674.255 410.588 C 673.872 410.205, 674.145 409.528, 674.863 409.085 C 675.880 408.456, 675.799 408.137, 674.494 407.636 C 673.573 407.283, 672.341 407.290, 671.755 407.651 C 671.170 408.013, 670.977 407.846, 671.326 407.281 C 672.105 406.022, 661.832 403, 656.773 403 C 651.655 403, 641.584 406.344, 637.219 409.493 C 635.174 410.969, 629.814 416.070, 625.309 420.828 L 617.117 429.480 615.081 424.990 C 613.960 422.521, 613.034 419.990, 613.022 419.367 C 613.010 418.744, 616.938 414.207, 621.750 409.285 C 633.295 397.478, 640.406 393.779, 651.723 393.694 C 656.096 393.661, 662.339 394.389, 665.987 395.358 C 670.209 396.479, 672.594 396.717, 672.820 396.040 C 673.011 395.468, 673.831 395, 674.642 395 C 675.470 395, 675.816 394.512, 675.431 393.888 C 675.053 393.277, 675.326 392.416, 676.038 391.976 C 676.887 391.452, 675.466 390.616, 671.916 389.551 C 662.935 386.855, 658.372 386.526, 655.557 388.371 C 653.444 389.755, 653.149 389.776, 653.637 388.503 C 653.954 387.676, 653.716 387, 653.107 387 C 652.498 387, 652 387.450, 652 388 C 652 388.550, 651.298 389, 650.441 389 C 649.584 389, 649.160 388.550, 649.500 388 C 650.515 386.358, 643.959 386.907, 638.001 388.963 C 633.363 390.564, 632.379 390.641, 631.715 389.456 C 631.283 388.683, 628.914 385.045, 626.451 381.372 C 623.988 377.699, 622.178 374.488, 622.430 374.236 C 623.440 373.227, 635.875 372.917, 641.679 373.756 C 647.186 374.552, 647.909 374.457, 648.320 372.883 C 648.575 371.911, 648.494 370.827, 648.141 370.475 C 647.789 370.122, 647.500 369.313, 647.500 368.676 C 647.500 366.164, 632.152 365.218, 621.615 367.081 C 615.650 368.136, 615.350 368.081, 609.375 364.831 C 605.471 362.708, 601.790 359.652, 599.223 356.404 C 597.009 353.601, 593.539 349.941, 591.513 348.271 C 583.089 341.328, 568.145 336.270, 558.836 337.212 C 554.795 337.621, 554.133 337.319, 549.105 332.767 C 533.348 318.501, 509.534 314.234, 491.425 322.432 C 487.089 324.394, 486.085 324.535, 484.529 323.397 C 478.587 319.053, 461.992 316.340, 452 318.080 M 448.314 327.857 C 439.262 330.985, 432.040 337, 437.337 337 C 438.008 337, 441.877 338.591, 445.936 340.537 C 455.463 345.102, 466.774 356.220, 473.370 367.500 C 481.855 382.011, 486.837 403.253, 485.324 418.468 C 484.582 425.929, 483.570 428, 480.665 428 C 476.770 428, 476.225 426.454, 476.768 416.936 C 477.377 406.253, 475.777 395.340, 472.061 384.840 C 468.356 374.371, 463.705 366.913, 456 359.091 C 435.963 338.750, 407.439 337.650, 388.431 356.486 C 374.094 370.693, 371.955 389.402, 383.265 401.671 C 385.459 404.052, 387.535 405.999, 387.877 405.998 C 388.220 405.996, 389.759 403.586, 391.297 400.641 C 394.424 394.657, 398.107 391.951, 400.815 393.648 C 403.423 395.283, 403.374 398.636, 400.691 402.229 C 397.066 407.081, 395.672 412.451, 396.285 419.202 C 397.347 430.921, 405.101 441.350, 416.825 446.833 C 422.096 449.298, 423.496 449.490, 436.500 449.535 C 447.954 449.574, 451.184 449.915, 454.262 451.411 C 462.379 455.356, 465.543 462.671, 462.537 470.543 C 461.601 472.994, 460.267 475, 459.572 475 C 457.135 475, 455 471.379, 455 467.244 C 455 464.007, 454.446 462.709, 452.365 461.073 C 450.042 459.245, 448.352 459, 438.075 459 C 424.783 459, 417.157 457.399, 409.265 452.951 C 404.947 450.517, 402.884 450, 397.483 450 C 389.844 450, 384.832 448.176, 380.165 443.699 C 376.292 439.984, 374.296 436.524, 373.993 433 C 373.642 428.904, 373.903 428.122, 376 427 C 378.496 425.664, 381.998 427.289, 382.004 429.785 C 382.011 433.010, 385.773 437.679, 390.084 439.811 C 392.453 440.983, 394.557 441.776, 394.761 441.572 C 394.965 441.369, 393.738 438.734, 392.036 435.718 C 390.334 432.702, 388.456 427.482, 387.864 424.117 L 386.786 418 381.143 418.004 C 374.252 418.008, 370.116 420.271, 366.484 426.025 C 364.386 429.349, 363.406 430.064, 361.300 429.811 C 355.129 429.072, 355.865 422.711, 362.907 415.911 C 365.930 412.992, 369.329 410.828, 372.245 409.967 L 376.830 408.614 374.070 404.557 C 372.551 402.326, 370.503 398.363, 369.519 395.750 C 368.534 393.137, 367.376 391, 366.945 391 C 365.007 391, 355.130 401.336, 352.458 406.161 C 349.792 410.972, 349.501 412.390, 349.509 420.500 C 349.517 428.302, 349.873 430.174, 352.182 434.563 C 355.570 441.007, 361.717 446.563, 368.880 449.658 C 378.731 453.913, 379.500 454.440, 379.500 456.929 C 379.500 460.583, 376.881 461.650, 371.471 460.203 C 368.934 459.525, 366.440 459.228, 365.929 459.544 C 364.362 460.512, 364.894 468.402, 366.704 471.027 C 369.435 474.989, 371.215 475.935, 376 475.964 C 383.893 476.014, 389.663 470.935, 390.727 463 C 391.416 457.862, 394.022 456.129, 397.567 458.452 C 398.905 459.329, 400 460.470, 400 460.988 C 400 461.506, 401.459 463.592, 403.241 465.622 C 406.910 469.800, 413.028 472.945, 417.550 472.978 C 421.121 473.004, 423 474.563, 423 477.500 C 423 480.553, 421.084 482.001, 417.050 481.994 C 411.697 481.986, 406.632 480.289, 401.302 476.717 L 396.500 473.500 393.069 477.322 C 391.182 479.424, 387.937 482.012, 385.859 483.072 C 381.326 485.384, 372.730 485.626, 367.872 483.578 C 363.796 481.860, 358.513 476.537, 357.061 472.685 C 355.753 469.215, 355.676 459.983, 356.927 456.693 C 357.754 454.517, 357.268 453.750, 352.407 449.553 L 346.960 444.851 345.237 448.675 C 342.437 454.888, 342.860 467.150, 346.109 474 C 351.049 484.412, 360.075 491.002, 372.034 492.928 C 376.722 493.683, 382.204 493.540, 393.895 492.357 C 428.607 488.844, 438.668 491.204, 475.500 511.499 C 492.095 520.642, 506.325 524.129, 518.810 522.112 C 541.086 518.512, 555.621 498.497, 549.472 479.888 C 548.088 475.698, 546.114 472.924, 540.596 467.412 C 528.762 455.593, 515.660 450.594, 494.500 449.826 C 485.978 449.517, 485.516 449.606, 485.795 451.500 C 485.958 452.600, 486.408 455.975, 486.795 459 L 487.500 464.500 494 465.073 C 501.693 465.750, 509.011 468.036, 518.225 472.640 C 525.613 476.331, 529.406 476.805, 532.760 474.455 C 535.323 472.660, 538.483 473.794, 539.455 476.858 C 540.737 480.898, 538.098 483.162, 530 484.968 C 525.715 485.923, 525.023 485.736, 515.500 481.035 C 503.281 475.004, 499.660 474.013, 489.809 474.006 C 485.579 474.003, 481.865 473.590, 481.555 473.089 C 481.245 472.588, 480.289 468.425, 479.431 463.839 C 476.527 448.331, 472.744 442.957, 460.958 437.598 C 452.445 433.727, 443.595 432.567, 433.509 433.999 C 421.557 435.695, 415.168 433.072, 410.780 424.666 C 406.160 415.818, 409.365 402, 416.036 402 C 419.426 402, 420.284 405.432, 418.295 411.033 C 416.557 415.925, 416.562 416.146, 418.506 419.765 C 421.322 425.007, 424.057 426.048, 432.330 425.021 C 436.086 424.555, 439.364 423.969, 439.615 423.719 C 440.579 422.754, 435.595 411.536, 431.592 405.660 C 423.241 393.404, 409.233 385.856, 394.332 385.584 C 385.886 385.430, 383.312 383.877, 384.389 379.585 C 385.004 377.138, 385.383 377, 391.519 377 L 398 377 398 372.960 C 398 361.427, 409.982 351.568, 424 351.568 C 439.662 351.568, 452 363.613, 452 378.905 C 452 383.415, 452.259 383.906, 455.919 386.328 C 458.075 387.754, 460.991 390.432, 462.399 392.279 C 470.318 402.661, 469.666 419.903, 461.496 416.180 C 459.300 415.180, 459 414.417, 459 409.837 C 459 399.692, 451.662 391, 443.096 391 C 441.321 391, 439.051 390.563, 438.052 390.028 C 433.774 387.739, 434.941 382.611, 439.992 381.502 C 442.674 380.913, 442.998 380.443, 442.984 377.171 C 442.943 368.096, 434.292 360.532, 424 360.573 C 414.451 360.610, 407.589 365.599, 406.318 373.427 L 405.759 376.872 415.130 381.274 C 430.712 388.594, 440.899 400.033, 446.622 416.639 L 449.427 424.777 454.463 425.907 C 461.652 427.520, 469.617 431.430, 476.166 436.561 C 481.154 440.469, 482.431 441, 486.844 441 L 491.856 441 494.031 435.250 C 506.279 402.872, 493.612 365.030, 463.250 343.298 C 456.646 338.571, 455.712 336.476, 458.917 333.575 C 461.046 331.648, 462.688 332.154, 468.601 336.563 L 471.703 338.875 474.851 334.408 C 476.583 331.952, 478 329.747, 478 329.510 C 478 329.272, 475.668 328.385, 472.818 327.539 C 465.885 325.480, 454.776 325.624, 448.314 327.857 M 504.527 327.114 C 497.437 328.146, 490.013 331.585, 484.278 336.494 C 478.528 341.415, 478.205 343.128, 482.106 347.982 C 483.882 350.192, 485.612 352, 485.952 352 C 486.291 352, 487.382 350.623, 488.377 348.939 C 493.999 339.422, 514 334.281, 514 342.353 C 514 345.533, 512.313 346.783, 507.487 347.175 C 503.539 347.497, 503.501 347.539, 503.632 351.450 C 503.902 359.551, 514 364.091, 519.505 358.586 C 523.088 355.003, 523.562 351.690, 521.151 347.065 C 519.172 343.268, 519.160 343.024, 520.857 340.928 C 523.306 337.904, 526.512 339.124, 529.017 344.033 C 534.315 354.418, 527.655 367.531, 516.089 369.485 C 507.739 370.896, 497.776 365.132, 496.365 358.073 C 495.521 353.854, 494.464 353.467, 493.057 356.861 C 491.994 359.429, 492.355 360.632, 496.884 369.599 C 504.763 385.197, 506.496 392.595, 506.462 410.500 C 506.437 423.984, 506.170 426.284, 503.821 433.257 L 501.208 441.014 503.354 441.449 C 504.534 441.689, 507.300 442.160, 509.500 442.496 C 511.700 442.832, 514.228 443.319, 515.118 443.579 C 516.360 443.941, 516.889 443.093, 517.395 439.934 C 518.685 431.865, 525.066 423.455, 532.889 419.513 C 537.191 417.345, 541 418.693, 541 422.384 C 541 424.199, 539.876 425.469, 536.534 427.427 C 531.046 430.644, 527.553 435.113, 526.016 440.888 C 524.683 445.897, 524.951 446.335, 531.567 449.944 L 535.635 452.163 542.067 448.652 C 546.611 446.171, 552.038 444.399, 560.549 442.616 C 574.657 439.660, 576.284 439.121, 575.614 437.621 C 569.556 424.065, 569.500 423.831, 569.500 412 C 569.500 402.108, 569.822 399.801, 571.804 395.500 C 573.071 392.750, 575.321 389.231, 576.804 387.681 C 578.561 385.843, 579.500 383.768, 579.500 381.721 C 579.500 377.491, 582.792 375.749, 589.622 376.366 C 598.868 377.202, 609.339 384.620, 616.063 395.098 C 617.793 397.794, 619.527 400, 619.917 400 C 620.307 400, 621.916 398.653, 623.494 397.006 L 626.362 394.013 621.569 386.999 C 610.814 371.258, 598.239 364.287, 585.500 367.004 C 574.329 369.388, 572.287 369.405, 571.069 367.129 C 568.687 362.678, 560.680 360.714, 554.315 363.020 C 552.767 363.580, 549.663 366.110, 547.419 368.640 C 544.221 372.245, 542.887 373.099, 541.261 372.583 C 534.399 370.405, 541.269 359.166, 551.748 355.427 C 559.334 352.720, 570.255 354.206, 575.118 358.607 C 576.568 359.919, 577.682 359.966, 582.905 358.939 C 586.257 358.279, 589 357.386, 589 356.953 C 589 355.330, 576.535 347.921, 571.194 346.368 C 563.838 344.229, 554.847 344.969, 547.865 348.288 C 541.810 351.165, 539 350.573, 539 346.418 C 539 344.675, 539.916 343.386, 541.994 342.203 C 543.640 341.267, 544.990 340.216, 544.994 339.869 C 545.004 338.815, 538.803 334.437, 533.483 331.743 C 524.592 327.241, 514.615 325.646, 504.527 327.114 M 557.062 380.400 C 555.131 383.524, 554.617 383.805, 552.381 382.955 C 546.282 380.636, 535.274 382.533, 529.030 386.979 C 525.394 389.568, 525.340 389.558, 523.505 386.009 C 520.705 380.596, 515.119 378.642, 513.618 382.552 C 513.323 383.321, 514.461 386.897, 516.146 390.497 C 518.784 396.135, 519.202 398.151, 519.157 405.003 C 519.104 413.086, 520.255 416, 523.500 416 C 526.587 416, 528 412.945, 528 406.274 C 528 399.909, 528.131 399.565, 531.945 395.938 C 540.107 388.173, 553.365 389.224, 556.968 397.923 C 557.955 400.306, 558.864 401, 560.999 401 C 565.352 401, 566.671 398.630, 564.662 394.418 C 562.582 390.055, 562.542 386.625, 564.551 384.958 C 565.495 384.174, 565.984 382.463, 565.801 380.585 C 565.543 377.937, 565.056 377.457, 562.365 377.195 C 559.711 376.937, 558.899 377.428, 557.062 380.400 M 584.856 389.815 C 575.842 399.841, 574.484 414.631, 581.153 430.135 C 583.335 435.205, 583.651 435.271, 588.308 431.614 C 590.047 430.249, 590.032 429.916, 587.931 422.999 C 584.992 413.321, 585.551 404.432, 589.565 397.059 C 591.134 394.176, 593.526 390.945, 594.880 389.880 C 597.709 387.655, 596.977 386.345, 592.393 385.429 C 589.681 384.886, 588.855 385.367, 584.856 389.815 M 599.653 396.093 C 597.628 398.458, 595.476 402.218, 594.872 404.447 C 592.473 413.289, 596.080 427.789, 603.964 441 C 608.211 448.117, 617.729 459.286, 618.919 458.550 C 619.331 458.296, 620.934 456.260, 622.481 454.027 L 625.295 449.966 618.663 443.096 C 610.881 435.035, 605.771 425.297, 603.936 415.030 C 602.716 408.201, 603.038 405.915, 606.339 398 C 606.683 397.175, 606.148 395.441, 605.149 394.146 L 603.334 391.792 599.653 396.093 M 542.667 400.667 C 541.227 402.107, 542.138 405.289, 545.016 408.870 C 550.818 416.090, 551.412 423.113, 546.939 431.616 C 544.442 436.363, 544.069 437.856, 544.917 439.718 C 547.137 444.589, 551.720 441.944, 555.638 433.531 C 560.178 423.781, 558.221 410.040, 551.254 402.750 C 548.778 400.159, 544.268 399.065, 542.667 400.667 M 610.705 405.750 C 610.414 407.262, 610.399 408.724, 610.670 408.998 C 611.549 409.886, 613.880 405.850, 613.324 404.403 C 612.464 402.162, 611.277 402.773, 610.705 405.750 M 623.963 433.548 L 621.500 436.177 624.500 438.586 L 627.500 440.996 627.797 438.213 C 627.961 436.682, 627.719 434.415, 627.260 433.174 L 626.426 430.918 623.963 433.548 M 591.002 439.497 C 588.383 442.653, 575.796 447.851, 564.364 450.498 C 557.839 452.009, 550.577 454.216, 548.226 455.403 L 543.951 457.560 547.361 460.865 C 550.764 464.164, 550.777 464.167, 554.022 462.489 C 555.810 461.564, 562.468 459.730, 568.817 458.413 C 580.256 456.041, 590.208 452.177, 594.969 448.259 L 597.437 446.227 595.469 442.531 C 593.042 437.975, 592.546 437.638, 591.002 439.497 M 585.695 462.638 C 585.344 462.990, 581.792 464.044, 577.801 464.982 C 570.905 466.602, 570.667 466.751, 572.985 467.992 C 575.668 469.428, 587.971 470.609, 590.427 469.666 C 591.773 469.150, 591.703 468.611, 589.889 465.536 C 587.819 462.028, 586.924 461.410, 585.695 462.638 M 426.418 469.469 C 424.995 475.142, 434.743 484.340, 446.828 488.727 C 455.690 491.943, 467.267 492.673, 476.895 490.622 C 480.963 489.756, 485.125 488.292, 486.145 487.369 C 490.125 483.767, 487.306 479.307, 481.759 480.431 C 469.648 482.885, 464.326 483.291, 458.148 482.233 C 449.461 480.744, 439.768 475.839, 435.827 470.935 C 431.955 466.116, 427.437 465.412, 426.418 469.469 M 557.366 470.293 C 556.340 470.844, 555.393 471.373, 555.263 471.468 C 555.133 471.563, 556.055 474.296, 557.313 477.543 C 559.579 483.394, 559.654 483.465, 566.049 485.696 C 576.493 489.340, 594.511 488.543, 602.874 484.067 L 605.156 482.846 601.332 479.541 C 598.045 476.700, 597.158 476.378, 595.004 477.246 C 591.522 478.651, 578.355 478.597, 573.322 477.157 C 571.024 476.500, 566.914 474.461, 564.188 472.626 C 560.283 469.999, 558.836 469.504, 557.366 470.293 M 528.667 489.667 C 528.300 490.033, 528 491.579, 528 493.102 C 528 495.883, 527.103 498.420, 524.522 502.937 C 521.790 507.717, 527.475 511.382, 531.452 507.405 C 535.472 503.386, 537.944 494.633, 536.056 491.105 C 534.960 489.056, 530.203 488.130, 528.667 489.667 M 484.046 499.445 C 479.452 504.980, 492.878 514, 505.710 514 C 508.655 514, 512.625 513.348, 514.532 512.551 C 517.370 511.365, 518 510.570, 518 508.173 C 518 503.731, 515.807 502.414, 511.035 503.988 C 505.295 505.883, 498.572 504.788, 493.353 501.110 C 488.518 497.702, 485.884 497.230, 484.046 499.445 M 392 501.667 C 386.225 502.443, 379.091 502.907, 376.148 502.698 L 370.795 502.318 371.445 506.409 C 373.095 516.809, 380.985 527.581, 390.772 532.798 C 409.044 542.537, 432.165 540.415, 443.411 527.967 C 448.140 522.732, 450 518.360, 450 512.477 C 450 507.908, 449.978 507.880, 444.750 505.536 C 436.738 501.944, 433.306 501.460, 432.559 503.815 C 431.491 507.178, 424.829 513.189, 419.427 515.662 C 415.981 517.240, 411.429 518.261, 405.963 518.682 C 398.745 519.239, 397.288 519.686, 394.383 522.237 C 388.917 527.036, 384.123 523.530, 387.424 517.147 C 390.053 512.062, 394.803 509.948, 405.090 509.281 C 413.144 508.759, 414.788 508.318, 418.809 505.594 C 426.229 500.569, 425.642 499.983, 413.333 500.128 C 407.375 500.198, 397.775 500.891, 392 501.667" stroke="none" fill="#417eac" fill-rule="evenodd"/></svg>